<?xml version="1.0" encoding="utf-8"?>
<!-- Generator: Adobe Illustrator 15.1.0, SVG Export Plug-In . SVG Version: 6.00 Build 0)  -->
<!DOCTYPE svg PUBLIC "-//W3C//DTD SVG 1.1//EN" "http://www.w3.org/Graphics/SVG/1.1/DTD/svg11.dtd">
<svg version="1.1" id="Layer_1" xmlns="http://www.w3.org/2000/svg" xmlns:xlink="http://www.w3.org/1999/xlink" x="0px" y="0px"
	 width="74px" height="73.5px" viewBox="0 0 74 73.5" enable-background="new 0 0 74 73.5" xml:space="preserve">
<g>
	<path fill="#FFFFFF" d="M69.774,43.522L62.03,7.616L5.682,19.769l4.936,22.885H0.454l10.984,3.807l1.987,9.215L69.774,43.522z
		 M67.397,41.989L14.959,53.298L8.228,22.087l29.749,10.711l22.69-22.021L67.397,41.989z M10.493,20.777l47.569-10.259
		L37.479,30.493L10.493,20.777z"/>
	<path fill="#FFFFFF" d="M70.256,37.685l1.597,7.407l-18.873,4.07c1.53,3.997,5.392,6.84,9.927,6.84
		c5.875,0,10.638-4.762,10.638-10.637C73.546,42.343,72.28,39.622,70.256,37.685z"/>
</g>
</svg>
