<?xml version="1.0" encoding="utf-8"?>
<!-- Generator: Adobe Illustrator 15.1.0, SVG Export Plug-In . SVG Version: 6.00 Build 0)  -->
<!DOCTYPE svg PUBLIC "-//W3C//DTD SVG 1.1//EN" "http://www.w3.org/Graphics/SVG/1.1/DTD/svg11.dtd">
<svg version="1.1" id="Layer_1" xmlns="http://www.w3.org/2000/svg" xmlns:xlink="http://www.w3.org/1999/xlink" x="0px" y="0px"
	 width="74px" height="73.5px" viewBox="0 0 74 73.5" enable-background="new 0 0 74 73.5" xml:space="preserve">
<g>
	<path fill="#FFFFFF" d="M46.919,54.534c-4.232,1.588-5.554,0-5.554,0c-2.248-1.717-3.832-0.924-3.832-0.924V50.7
		c1.854-7.01,6.476-7.01,6.476-7.01c9.655-0.66,8.596-5.949,8.596-5.949c-2.645,5.158-7.139,3.701-7.139,3.701
		c1.061-2.115-0.003-2.777-0.003-2.777c0.133,3.572-4.628,4.234-4.628,4.234c1.587-2.91,0.132-6.217-1.984-9.92
		c-2.116-3.703,2.777-8.464,2.777-8.464c-3.834,2.911-3.822,5.687-3.822,5.687c-2.367,2.115-3.451-2.512-3.451-2.512
		c1.5-8.211-1.454-11.109-1.454-11.109s0,0,0.661,5.423c0.662,5.423-1.19,5.024-1.19,5.024c-7.515-1.811-9.388-5.355-9.822-7.412
		c0.505,5.064,3.054,4.835,8.367,8.338c5.819,3.836,5.952,7.225,5.952,7.225c-5.422-5.075-9.125,0-9.125,0
		c4.497-2.432,6.612,0,6.612,0c-3.57,1.404-4.496,3.752-4.496,3.752c2.115-2.381,4.496-2.116,6.347-1.586
		c1.852,0.527,1.587,2.908,1.587,4.627c0,0.232-0.05,0.486-0.129,0.754c-0.964-0.752-2.942-1.512-6.88-1.943
		c-9.654-1.059-12.299-6.217-12.299-6.217c1.19,4.629,8.332,6.48,9.125,6.877c0.794,0.396-1.719,1.721-1.719,1.721
		c5.68-1.492,8.86,1.014,10.25,2.629c-0.72,1.271-1.539,2.756-2.183,4.512c-1.021,2.781-0.61,4.131-0.273,4.689
		c-0.891,0.625-2.622,0.988-5.678-0.459c-5.025-2.379-8.067,0.662-8.067,0.662c4.628-1.189,8.993,1.455,12.299,2.779
		c3.306,1.32,10.844,0.395,13.753-1.59c2.909-1.982,8.067-1.057,8.067-1.057S51.151,52.948,46.919,54.534z M34.319,54.336
		l0.168-0.463C34.488,53.971,34.437,54.141,34.319,54.336z"/>
	<path fill="#FFFFFF" d="M22.55,19.616c-0.048-0.481-0.084-0.994-0.096-1.58C22.454,18.036,22.35,18.667,22.55,19.616z"/>
	<path fill="#FFFFFF" d="M30.455,43.924c0,0-3.57-0.795-4.364,2.279C26.091,46.204,29.562,47.592,30.455,43.924z"/>
	<path fill="#FFFFFF" d="M25.595,25.475c0,0-3.571-0.795-4.364,2.281C21.231,27.756,24.702,29.144,25.595,25.475z"/>
	<path fill="#FFFFFF" d="M50.699,20.717c0,0-2.937-2.18-4.915,0.305C45.784,21.022,48.388,23.705,50.699,20.717z"/>
	<path fill="#FFFFFF" d="M39.282,16.288c0,0-3.479-1.132-4.562,1.854C34.72,18.141,38.043,19.856,39.282,16.288z"/>
	<path fill="#FFFFFF" d="M32.766,18.25c0,0-1.614-3.281-4.51-1.977C28.256,16.274,29.345,19.85,32.766,18.25z"/>
	<path fill="#FFFFFF" d="M47.533,48.647c0,0,0.805-3.568-2.268-4.371C45.265,44.276,43.866,47.743,47.533,48.647z"/>
	<path fill="#FFFFFF" d="M41.887,23.016c0,0,0.586-2.598-1.65-3.184C40.236,19.833,39.217,22.358,41.887,23.016z"/>
	<path fill="#FFFFFF" d="M44.466,17.315c0,0,0.586-2.599-1.651-3.184C42.815,14.131,41.796,16.657,44.466,17.315z"/>
	<path fill="#FFFFFF" d="M33.948,12.393c0,0-2.303,1.451-0.524,3.549C33.424,15.942,35.419,14.178,33.948,12.393z"/>
	<path fill="#FFFFFF" d="M21.958,20.886c0,0-1.542-2.171-3.472-0.896C18.486,19.99,19.685,22.434,21.958,20.886z"/>
	<path fill="#FFFFFF" d="M28.361,20.999c0,0-2.094,1.738-0.056,3.585C28.305,24.583,30.053,22.574,28.361,20.999z"/>
	<path fill="#FFFFFF" d="M28.361,26.698c0,0-2.094,1.74-0.056,3.585C28.305,30.283,30.053,28.274,28.361,26.698z"/>
	<path fill="#FFFFFF" d="M49.879,31.598c0,0,1.777-1.984,0.109-3.584C49.988,28.014,47.868,29.723,49.879,31.598z"/>
	<path fill="#FFFFFF" d="M53.346,33.385c0,0-2.12,1.707-0.109,3.584C53.236,36.969,55.014,34.986,53.346,33.385z"/>
	<path fill="#FFFFFF" d="M53.215,40.071c0,0,1.178,2.389,3.285,1.438C56.5,41.508,55.705,38.905,53.215,40.071z"/>
	<path fill="#FFFFFF" d="M44.286,35.321c0,0-0.796-2.603-3.286-1.436C41,33.885,42.179,36.274,44.286,35.321z"/>
	<path fill="#FFFFFF" d="M45.31,33.34c0,0,0.62-2.65-2.12-2.891C43.19,30.45,43.009,33.106,45.31,33.34z"/>
	<path fill="#FFFFFF" d="M17.638,33.044c0,0,0.62-2.651-2.12-2.893C15.518,30.152,15.338,32.809,17.638,33.044z"/>
	<path fill="#FFFFFF" d="M19.219,33.387c0,0,2.404-0.555,1.71-2.735C20.929,30.652,18.662,31.543,19.219,33.387z"/>
	<path fill="#FFFFFF" d="M14.998,35.361c0,0,2.056,1.306,3.218-0.231C18.216,35.129,16.351,33.514,14.998,35.361z"/>
	<path fill="#FFFFFF" d="M37,6.137c-16.255,0-29.479,13.224-29.479,29.479c0,16.254,13.224,29.48,29.479,29.48
		s29.479-13.227,29.479-29.48C66.479,19.361,53.255,6.137,37,6.137z M37,63.125c-15.169,0-27.51-12.34-27.51-27.51
		c0-15.169,12.341-27.51,27.51-27.51c15.168,0,27.509,12.341,27.509,27.51C64.51,50.786,52.169,63.125,37,63.125z"/>
</g>
</svg>
