<?xml version="1.0" encoding="utf-8"?>
<!-- Generator: Adobe Illustrator 15.1.0, SVG Export Plug-In . SVG Version: 6.00 Build 0)  -->
<!DOCTYPE svg PUBLIC "-//W3C//DTD SVG 1.1//EN" "http://www.w3.org/Graphics/SVG/1.1/DTD/svg11.dtd">
<svg version="1.1" id="Layer_1" xmlns="http://www.w3.org/2000/svg" xmlns:xlink="http://www.w3.org/1999/xlink" x="0px" y="0px"
	 width="74px" height="73.5px" viewBox="0 0 74 73.5" enable-background="new 0 0 74 73.5" xml:space="preserve">
<g>
	<path fill="#FFFFFF" d="M16.567,5.381v20.396H4.235v36.195c0,2.602,2.647,4.718,5.902,4.718h2.528h3.902h15.7h32.616
		c2.584,0,4.686-2.102,4.686-4.686V5.381H16.567z M10.137,64.69c-2.115,0-3.902-1.245-3.902-2.718V27.777h10.332v5.291h-6.73v2h6.73
		v2.919h-6.73v2h6.73v2.919h-6.73v2h6.73v2.919h-6.73v2h6.73v3.459h-6.73v2h6.73v2.919h-6.73v2h6.73v1.768
		c0,1.473-1.787,2.718-3.902,2.718H10.137z M67.569,62.004c0,1.481-1.205,2.686-2.686,2.686H32.267h-13.7v-2.718V25.777V7.381
		h49.002V62.004z"/>
	<path fill="#FFFFFF" d="M24.902,38.846h38.667V16.5H24.902V38.846z M26.902,18.5h34.667v18.346H26.902V18.5z"/>
	<rect x="25.805" y="42.906" fill="#FFFFFF" width="17.734" height="2"/>
	<rect x="25.805" y="47.826" fill="#FFFFFF" width="17.734" height="2"/>
	<rect x="25.805" y="52.745" fill="#FFFFFF" width="17.734" height="2"/>
	<rect x="25.805" y="57.664" fill="#FFFFFF" width="17.734" height="2"/>
	<rect x="47.236" y="42.906" fill="#FFFFFF" width="16.667" height="2"/>
	<rect x="47.236" y="47.826" fill="#FFFFFF" width="16.667" height="2"/>
	<rect x="47.236" y="52.745" fill="#FFFFFF" width="16.667" height="2"/>
	<rect x="47.236" y="57.664" fill="#FFFFFF" width="16.667" height="2"/>
	<rect x="23.902" y="11.24" fill="#FFFFFF" width="39.667" height="2"/>
</g>
</svg>
