<?xml version="1.0" encoding="utf-8"?>
<!-- Generator: Adobe Illustrator 15.1.0, SVG Export Plug-In . SVG Version: 6.00 Build 0)  -->
<!DOCTYPE svg PUBLIC "-//W3C//DTD SVG 1.1//EN" "http://www.w3.org/Graphics/SVG/1.1/DTD/svg11.dtd">
<svg version="1.1" id="Layer_1" xmlns="http://www.w3.org/2000/svg" xmlns:xlink="http://www.w3.org/1999/xlink" x="0px" y="0px"
	 width="336px" height="340px" viewBox="0 0 336 340" enable-background="new 0 0 336 340" xml:space="preserve">
<linearGradient id="SVGID_1_" gradientUnits="userSpaceOnUse" x1="287.085" y1="297.8496" x2="195.085" y2="202.5166">
	<stop  offset="0" style="stop-color:#FFFFFF"/>
	<stop  offset="0.2242" style="stop-color:#9FA1A4"/>
	<stop  offset="1" style="stop-color:#000000"/>
</linearGradient>
<path fill="url(#SVGID_1_)" stroke="#9FA1A4" stroke-width="0.25" stroke-miterlimit="10" d="M310.267,99.495l-59.149,20.608
	c3.102,5.313,5.744,10.994,7.837,17.021c17.471,50.321-9.252,105.476-59.57,122.947c-40.46,14.051-84.029-0.491-108.639-32.882
	l-29.195,59.33c41.579,37.37,101.713,51.668,158.153,32.066c82.585-28.676,126.442-119.195,97.764-201.775
	C315.388,110.826,312.967,105.059,310.267,99.495z"/>
<radialGradient id="SVGID_2_" cx="226.9482" cy="251.4189" r="110.1703" gradientUnits="userSpaceOnUse">
	<stop  offset="0.0848" style="stop-color:#FFFFFF"/>
	<stop  offset="0.503" style="stop-color:#9FA1A4;stop-opacity:0.06"/>
	<stop  offset="1" style="stop-color:#000000"/>
</radialGradient>
<path opacity="0.93" fill="url(#SVGID_2_)" d="M308.527,102.268l-46.396,21.965c2.525,4.897,4.715,10.062,6.521,15.477
	c18.546,55.564-9.824,116.482-63.241,135.783c-42.52,15.361-88.24-0.258-114.504-35.268l-22.291,47.125
	c39.955,37.357,97.747,51.652,151.985,32.055c79.363-28.662,121.51-119.162,93.952-201.727
	C312.785,112.378,310.769,107.24,308.527,102.268z"/>
<path fill="none" stroke="#9FA1A4" stroke-width="0.25" stroke-miterlimit="10" d="M115.311,19.282
	C32.726,47.958-11.135,138.479,17.542,221.064c9.077,26.144,24.368,48.393,43.629,65.703l29.195-59.331
	c-5.998-7.892-10.884-16.828-14.308-26.687c-17.473-50.322,9.251-105.481,59.57-122.953c10.251-3.563,20.698-5.254,30.993-5.322
	l29.186-59.309C169.727,8.353,142.106,9.977,115.311,19.282z"/>
<linearGradient id="SVGID_3_" gradientUnits="userSpaceOnUse" x1="129" y1="280.4736" x2="67" y2="280.4736">
	<stop  offset="0" style="stop-color:#9FA1A4;stop-opacity:0"/>
	<stop  offset="0.8606" style="stop-color:#000000"/>
</linearGradient>
<path fill="url(#SVGID_3_)" d="M136.59,260.638c0.025,0,0.048-0.01,0.073-0.01c-14.957-4.89-28.604-13.401-39.653-24.835
	l-10.568-2.216l-4.987,10.132l-5.354,55.256c25.756,17.847,56.546,27.963,88.413,28.404l0.019-0.139
	c0,0-23.119-14.742-29.244-53.318C135.29,273.912,120.417,261.976,136.59,260.638z"/>
<linearGradient id="SVGID_4_" gradientUnits="userSpaceOnUse" x1="142.9565" y1="281.3955" x2="121.6235" y2="284.3955">
	<stop  offset="0" style="stop-color:#9FA1A4;stop-opacity:0"/>
	<stop  offset="0.8606" style="stop-color:#000000"/>
</linearGradient>
<path fill="url(#SVGID_4_)" d="M129.595,322.956c0,0-49.595-14.622-52.595-26.622s32.211-49.874,32.211-49.874l16.876,10.005
	C126.087,256.465,104.189,261.911,129.595,322.956z"/>
<linearGradient id="SVGID_5_" gradientUnits="userSpaceOnUse" x1="255.082" y1="-109.1606" x2="42.7071" y2="311.1646">
	<stop  offset="0" style="stop-color:#FFFFFF"/>
	<stop  offset="0.103" style="stop-color:#9FA1A4"/>
	<stop  offset="0.7515" style="stop-color:#000000"/>
	<stop  offset="1" style="stop-color:#FFFFFF"/>
</linearGradient>
<path fill="url(#SVGID_5_)" stroke="#9FA1A4" stroke-width="0.25" stroke-miterlimit="10" d="M224.336,21.237
	c-22.342-8.542-46.67-12.087-71.224-9.79L34.853,255.522c13.417,20.688,31.274,37.582,51.823,49.828L224.336,21.237z"/>
<linearGradient id="SVGID_6_" gradientUnits="userSpaceOnUse" x1="228.5059" y1="17.5737" x2="156.3901" y2="65.8743">
	<stop  offset="0" style="stop-color:#B8BABD;stop-opacity:0.28"/>
	<stop  offset="0.6121" style="stop-color:#FFFFFF"/>
	<stop  offset="1" style="stop-color:#9FA1A4;stop-opacity:0"/>
</linearGradient>
<path fill="url(#SVGID_6_)" d="M224.336,20.578c-22.341-8.543-46.67-12.088-71.223-9.792l-34.77,71.763
	c13.297,10.235,33.85,18.575,65.056,22.516L224.336,20.578z"/>
<linearGradient id="SVGID_7_" gradientUnits="userSpaceOnUse" x1="277.5566" y1="273.1104" x2="298.5566" y2="141.6104">
	<stop  offset="0" style="stop-color:#2E3D32;stop-opacity:0.46"/>
	<stop  offset="0.903" style="stop-color:#FFFFFF"/>
</linearGradient>
<path fill="url(#SVGID_7_)" stroke="#9FA1A4" stroke-width="0.25" stroke-miterlimit="10" d="M259.581,198.424
	c5.422,4.834,0,40.563,64.067-1.501c3.088-17.032,3.479-34.702,0.732-52.386c-2.97-2.866-5.143-3.208-9.484-2.915
	c-11.061,0.74-22.677,3.257-33.451,5.601c-5.848,1.271-12.321,2.873-18.545,5.003C265.656,167.996,264.313,183.806,259.581,198.424z
	"/>
<path d="M154.36,11.447l-0.947,1.954c23.179-1.566,46.074,1.976,67.191,10.049L84.942,303.44c0.999,0.629,1.968,1.304,2.981,1.91
	l137.66-284.114C203.24,12.695,178.913,9.149,154.36,11.447z"/>
<linearGradient id="SVGID_8_" gradientUnits="userSpaceOnUse" x1="105.2114" y1="123.8115" x2="194.2114" y2="170.8115">
	<stop  offset="0.4848" style="stop-color:#000000"/>
	<stop  offset="1" style="stop-color:#FFFFFF;stop-opacity:0"/>
</linearGradient>
<polygon fill="url(#SVGID_8_)" points="120.317,130.481 140.271,185.468 173.135,116.54 "/>
<polyline points="197.539,76.92 161.191,151.561 162.181,152.226 198.785,76.939 "/>
<linearGradient id="SVGID_9_" gradientUnits="userSpaceOnUse" x1="232.293" y1="236.9316" x2="254.431" y2="209.4261">
	<stop  offset="0" style="stop-color:#9FA1A4;stop-opacity:0"/>
	<stop  offset="0.8606" style="stop-color:#000000"/>
</linearGradient>
<path fill="url(#SVGID_9_)" d="M259.581,173.36c0,0,9.032,11.466-7.971,43.218c-13.973,26.099-40.115,38.331-40.115,38.331
	c3.467,0.228,7.305,0.479,10.892,0.712c6.69,0.445,12.859,2.521,18.557-2.151c18.66-15.298,28.711-40.575,33.25-63.669
	c1.633-8.303,2.663-16.851,3.264-25.293"/>
<linearGradient id="SVGID_10_" gradientUnits="userSpaceOnUse" x1="185.7148" y1="141.5664" x2="330.9837" y2="162.2151">
	<stop  offset="0.3091" style="stop-color:#223026"/>
	<stop  offset="0.697" style="stop-color:#9FA1A4"/>
	<stop  offset="0.9636" style="stop-color:#FFFFFF"/>
</linearGradient>
<path fill="url(#SVGID_10_)" stroke="#9FA1A4" stroke-width="0.25" stroke-miterlimit="10" d="M326.252,159.57
	c-0.746-14.613-3.5-29.353-8.533-43.851c-3.069-8.84-6.887-17.207-11.291-25.122l-144.865,51.31l23.505,67.693l122.043-42.384
	l-0.312-0.894L326.252,159.57z"/>
<linearGradient id="SVGID_11_" gradientUnits="userSpaceOnUse" x1="269.6182" y1="140.9341" x2="212.2614" y2="162.5686">
	<stop  offset="0" style="stop-color:#B8BABD;stop-opacity:0.28"/>
	<stop  offset="0.6121" style="stop-color:#FFFFFF"/>
	<stop  offset="1" style="stop-color:#9FA1A4;stop-opacity:0"/>
</linearGradient>
<polygon fill="url(#SVGID_11_)" points="200.277,203.678 264.423,181.398 287.534,96.52 188.244,133.121 "/>
<g opacity="0.15">
	<linearGradient id="SVGID_12_" gradientUnits="userSpaceOnUse" x1="165.5771" y1="129.0615" x2="266.7881" y2="155.6086">
		<stop  offset="0" style="stop-color:#FFFFFF"/>
		<stop  offset="0.2242" style="stop-color:#9FA1A4"/>
		<stop  offset="0.5091" style="stop-color:#000000"/>
		<stop  offset="1" style="stop-color:#FFFFFF"/>
	</linearGradient>
	<path fill="url(#SVGID_12_)" d="M185.485,209.792l-24.325-68.899L306.097,90.41l0.886,1.566
		c4.475,7.907,8.229,16.122,11.155,24.415c4.843,13.707,7.679,28.053,8.435,42.623l0.083,1.576L185.485,209.792z M166.639,143.486
		l21.495,60.877l134.042-46.712c-0.853-13.627-3.58-27.034-8.111-39.872c-2.652-7.511-6.008-14.964-9.977-22.173L166.639,143.486z"
		/>
</g>
<linearGradient id="SVGID_13_" gradientUnits="userSpaceOnUse" x1="284.208" y1="241.6201" x2="245.97" y2="265.7705">
	<stop  offset="0" style="stop-color:#B8BABD;stop-opacity:0.28"/>
	<stop  offset="0.6121" style="stop-color:#FFFFFF"/>
	<stop  offset="1" style="stop-color:#9FA1A4;stop-opacity:0"/>
</linearGradient>
<path opacity="0.93" fill="url(#SVGID_13_)" d="M183.438,280.474c0,0,59.077-0.781,85.215-69.987l26.267,49.852
	c0,0-22.989,31.939-51.012,47.515L183.438,280.474z"/>
<linearGradient id="SVGID_14_" gradientUnits="userSpaceOnUse" x1="86.3721" y1="292.7188" x2="183.7381" y2="107.6532">
	<stop  offset="0" style="stop-color:#FFFFFF"/>
	<stop  offset="0.7515" style="stop-color:#000000"/>
</linearGradient>
<path fill="url(#SVGID_14_)" stroke="#9FA1A4" stroke-width="0.25" stroke-miterlimit="10" d="M87.816,298.135L184.01,98.979
	C184.01,98.979,78.256,301.317,87.816,298.135z"/>
<linearGradient id="SVGID_15_" gradientUnits="userSpaceOnUse" x1="250.3203" y1="244.8545" x2="197.9946" y2="272.6958">
	<stop  offset="0" style="stop-color:#FFFFFF"/>
	<stop  offset="1" style="stop-color:#9FA1A4;stop-opacity:0"/>
</linearGradient>
<path opacity="0.93" fill="url(#SVGID_15_)" d="M180.988,280.472c0,0,43.705-2.213,71.389-38.22s0-1.242,0-1.242l2.861,5.822
	C255.238,246.832,227.261,280.167,180.988,280.472z"/>
<linearGradient id="SVGID_16_" gradientUnits="userSpaceOnUse" x1="64.8389" y1="268.5625" x2="89.9742" y2="213.0162">
	<stop  offset="0" style="stop-color:#FFFFFF"/>
	<stop  offset="0.7515" style="stop-color:#000000"/>
</linearGradient>
<path opacity="0.48" fill="url(#SVGID_16_)" stroke="#9FA1A4" stroke-width="0.25" stroke-miterlimit="10" d="M39.244,246.46
	l60.171,20.602L84.942,303.44c0,0-29.236-14.396-50.089-47.918L39.244,246.46z"/>
<polygon fill="#FFFFFF" points="259.479,261.561 251.75,242.5 231.889,248.736 250.875,241.875 241.936,233.303 251.75,240.75 
	254.117,225.709 252.377,241.01 272.618,243.211 252.254,241.782 "/>
<linearGradient id="SVGID_17_" gradientUnits="userSpaceOnUse" x1="265.4717" y1="195.5186" x2="378.4717" y2="151.5186">
	<stop  offset="0.097" style="stop-color:#FFFFFF"/>
	<stop  offset="0.4606" style="stop-color:#9FA1A4"/>
	<stop  offset="1" style="stop-color:#FFFFFF"/>
</linearGradient>
<path fill="url(#SVGID_17_)" d="M253.75,238.75c0,0,11.594-27.496,12.039-45.75s-6.02-9.985-6.02-9.985L247.5,187l-24.665-66.63
	l83.262-29.96c0,0,18.413,31.647,20.476,68.604C329.25,207,308.5,256.75,279,282L253.75,238.75z"/>
<path opacity="0.12" fill="none" stroke="#383838" stroke-width="0.75" stroke-miterlimit="10" d="M325.889,162.523l-0.082-1.576
	c-0.756-14.57-3.592-28.916-8.436-42.623c-1.572-4.456-3.391-8.887-5.424-13.262c-1.928-4.297-4.028-8.475-6.285-12.531
	l-0.188,0.064l-0.144-0.252l-137.074,47.744l-1.568,0.547l-0.038,0.012L223.57,23.169c-4.586-1.753-9.258-3.283-13.995-4.608
	l0.206-0.353c-4.725-1.334-9.516-2.462-14.363-3.357l-0.199,0.407c-13.973-2.541-28.381-3.235-42.872-1.879L34.087,257.455
	c13.417,20.689,31.273,37.582,51.823,49.828l0.136-0.277c38.789,22.992,87.058,29.432,132.89,13.514
	c68.039-23.625,109.782-89.229,106.342-157.784L325.889,162.523z M162.586,149.033l0.005,0.014l-2.132,4.379L162.586,149.033z
	 M198.617,262.004c-29.709,10.318-61.085,5.203-85.409-11.059l47.217-97.452l0.989,0.664l1.728-3.551l0.271,0.766l20.891,60.163
	l0.311-0.109l0.105,0.299l77.796-27.113C257.447,219.143,233.804,249.787,198.617,262.004z"/>
</svg>
