<?xml version="1.0" encoding="utf-8"?>
<!-- Generator: Adobe Illustrator 15.1.0, SVG Export Plug-In . SVG Version: 6.00 Build 0)  -->
<!DOCTYPE svg PUBLIC "-//W3C//DTD SVG 1.1//EN" "http://www.w3.org/Graphics/SVG/1.1/DTD/svg11.dtd">
<svg version="1.1" id="Layer_1" xmlns="http://www.w3.org/2000/svg" xmlns:xlink="http://www.w3.org/1999/xlink" x="0px" y="0px"
	 width="540px" height="540px" viewBox="0 0 540 540" enable-background="new 0 0 540 540" xml:space="preserve">
<rect fill="#E1DFEA" width="540" height="540"/>
<ellipse fill="#FFDC78" cx="184.666" cy="339.269" rx="93.334" ry="91.731"/>
<ellipse fill="#FFDC78" cx="324.266" cy="349.452" rx="47.104" ry="46.294"/>
<polygon fill="#A9FF7B" points="539.575,540 0,540 0,491.75 539.575,468.75 "/>
<ellipse fill="#FFDC78" cx="321.506" cy="176.206" rx="195.74" ry="176.206"/>
<rect x="123.288" y="264.202" transform="matrix(-0.9922 0.1243 -0.1243 -0.9922 413.8946 531.2889)" fill="#D3D3D3" stroke="#000000" stroke-width="3" stroke-miterlimit="10" width="134.17" height="28.709"/>
<path fill="#FDE8ED" stroke="#000000" stroke-miterlimit="10" d="M145.667,318.587l-2.236,17.746l-4.097,29.438l-17.667,13.896
	c0,0,4,3.466,17.667-5.601c13.667-9.067,9.657-5.733,9.657-5.733l5.391-47.021"/>
<g>
	<path fill="#F4C1D0" stroke="#000000" stroke-width="2" stroke-miterlimit="10" d="M100.064,97.335l5.824-31.241l5.828-15.567
		l7.196-9.431l0.5-5.946c0,0,12.938-15.003,14.228-16.902s11.669-4.373,11.669-4.373l0.446-5.314c0,0,11.743-5.251,14.736-5
		c2.993,0.251,13.325,2.83,13.325,2.83s5.007,3.177,7.999-1.04c2.991-4.217,14.92,1.783,17.066,3.144
		c2.146,1.36,9.444,8.664,9.444,8.664l7.75,15.369l6.36,0.534c0,0,7.354,6.639,9.677,14.862
		c2.323,8.223,10.025,37.637,10.025,37.637s-4.335,9.002-1.004,11.958c3.333,2.956,4.018,28.436,4.018,28.436l-4.032,14.379
		l-48.821-4.1l-39.47-10.004l-8.493-2.051l-34.439-11.589L100.064,97.335z"/>
	<path fill="#F4C1D0" stroke="#000000" stroke-width="2" stroke-miterlimit="10" d="M168.249,12.125c0,0,6.746,4.915,6.702,9.929
		c0,0,1.679-6.549,4.131-4.336c2.451,2.213,4.489,0.377,4.489,0.377l0.781-9.301"/>
	<path fill="#F4C1D0" stroke="#000000" stroke-width="2" stroke-miterlimit="10" d="M168.863,42.952c0,0-1.516-2.135,1.979-7.862
		c3.495-5.728,4.203-9.682,4.203-9.682"/>
	<path fill="#F4C1D0" stroke="#000000" stroke-width="2" stroke-miterlimit="10" d="M173.149,47.994c0,0-5.149-10.467-14.028-1.178"
		/>
	<path fill="#F4C1D0" stroke="#000000" stroke-width="2" stroke-miterlimit="10" d="M167.778,50.22c0,0,0.324,4.041-3.35,7.412
		c-3.673,3.371-4.204,9.682-2.827,13.477c1.376,3.795-0.26,5.331-0.26,5.331"/>
	<path fill="none" stroke="#000000" stroke-width="2" stroke-miterlimit="10" d="M157.567,105.894c0,0-2.264-6.88-0.286-14.742
		c1.979-7.862,3.5-14.759,3.5-14.759s4.279-8.338,7.093-10.443c2.814-2.105,5.807-1.854,5.807-1.854s-2.672-13.048,0.777-18.222
		c3.448-5.174,9.963-10.982,10.871-10.572c0.907,0.411,6.742-1.775,6.742-1.775s2.085-0.159,3.378,4.632"/>
	<path fill="none" stroke="#000000" stroke-width="2" stroke-miterlimit="10" d="M168.344,74.352c0,0,5.928-3.851,7.343,0.617
		c1.415,4.467,1.052,8.785,1.052,8.785s2.341-12.179,4.61-19.014s9.053-18.084,15.927-16.95c6.875,1.135,14.551-0.562,18.605,9.479"
		/>
	<path fill="none" stroke="#000000" stroke-width="2" stroke-miterlimit="10" d="M158.2,57.778c0,0-7.685,4.033-8.921,9.785
		c-1.237,5.753-2.953,14.975-3.308,16.952c-0.354,1.978,1.392,14.835,1.392,14.835"/>
	<path fill="none" stroke="#000000" stroke-width="2" stroke-miterlimit="10" d="M170.117,22.986c0,0,1.005,8.771-3.485,8.399
		c-4.489-0.372-8.41-5.389-10.771-5.25c-2.362,0.139-7.683,0.695-9.251,5.916c-1.568,5.22-2.914,7.783-4.323,13.352
		c-1.409,5.568-2.13,5.173-0.753,8.968c1.376,3.795,0.648,3.492,2.361,7.771c1.712,4.279,0.873,7.553,5.071,6.902"/>
	<path fill="none" stroke="#000000" stroke-width="2" stroke-miterlimit="10" d="M135.142,47.479c0,0-8.286-0.027-9.675,7.55
		c-1.39,7.577-0.085,16.718-0.085,16.718"/>
	<path fill="none" stroke="#000000" stroke-width="2" stroke-miterlimit="10" d="M136.353,75.679c0,0-11.263-6.632-12.584-2.395
		c-1.32,4.238-2.484,15.848-2.484,15.848"/>
	<path fill="none" stroke="#000000" stroke-width="2" stroke-miterlimit="10" d="M141.839,77.645c0,0-6.441-17.958-9.208-11.48"/>
	<polyline fill="none" stroke="#000000" stroke-width="2" stroke-miterlimit="10" points="132.575,55.626 137.05,67.384 
		137.65,60.234 	"/>
	<path fill="none" stroke="#000000" stroke-width="2" stroke-miterlimit="10" d="M144.561,29.532c0,0-7.825,5.704-8.386,5.657
		s-2.871,0.54-3.804,4.921c-0.933,4.381-2.851,2.548,0.985,6.215"/>
	<path fill="none" stroke="#000000" stroke-width="2" stroke-miterlimit="10" d="M130.158,28.323c0,0-12.619,15.493-3.961,24.394"/>
	<path fill="none" stroke="#000000" stroke-width="2" stroke-miterlimit="10" d="M108.435,59.291c0,0,6.973,5.263-4.113,15.204"/>
	<path fill="none" stroke="#000000" stroke-width="2" stroke-miterlimit="10" d="M124.834,63.972c0,0-9.903-6.854-11.21-0.254"/>
	<path fill="none" stroke="#000000" stroke-width="2" stroke-miterlimit="10" d="M154.1,30.333c0,0-5.946,23.591-1.21,31.181"/>
	<path fill="none" stroke="#000000" stroke-width="2" stroke-miterlimit="10" d="M146.027,45.717c0,0-0.551,12.266,5.127,9.095"/>
	<path fill="none" stroke="#000000" stroke-width="2" stroke-miterlimit="10" d="M150.448,19.997
		c0.832-0.934,7.008-9.441,11.596,0.974"/>
	<path fill="none" stroke="#000000" stroke-width="2" stroke-miterlimit="10" d="M148.788,12.833c0,0-1.167,6.264-9.899,10.877"/>
	<path fill="none" stroke="#000000" stroke-width="2" stroke-miterlimit="10" d="M202.436,11.491c0,0,0.187,8.525-4.461,7.807
		c-4.649-0.719-8.713,7.303-8.713,7.303l0.752,6.748"/>
	<path fill="none" stroke="#000000" stroke-width="2" stroke-miterlimit="10" d="M198.052,27.339c0,0,5.958,12.053,3.216,22.27"/>
	<path fill="none" stroke="#000000" stroke-width="2" stroke-miterlimit="10" d="M218.829,67.05c0,0,9.787,2.352,12.049,9.052
		c2.263,6.701,2.149,23.751,2.149,23.751"/>
	<path fill="none" stroke="#000000" stroke-width="2" stroke-miterlimit="10" d="M216.933,76.175c0,0,2.679,3.986-0.544,6.476
		c-3.223,2.489-5.045,4.008-5.045,4.008l0.502-5.979c0,0-2.105,11.865,1.664,16.196c3.77,4.331,6.489-1.128,8.646-6.633
		c2.157-5.505,5.633-13.242,5.912-5.358c0.28,7.885,1.071,18.656,1.071,18.656"/>
	<path fill="none" stroke="#000000" stroke-width="2" stroke-miterlimit="10" d="M210.154,60.441c0,0-4.395,2.979-4.8,7.807
		s-1.715,18.184-1.678,19.984c0.037,1.8-2.408,12.968-3.379,15.563"/>
	<path fill="none" stroke="#000000" stroke-width="2" stroke-miterlimit="10" d="M198.452,54.789c0,0-2.712-6.635-6.759,3.427
		c-4.047,10.063-5.584,21.641-7.768,22.963c-2.184,1.322-3.18-0.267-3.18-0.267l6.557,4.917"/>
	<path fill="none" stroke="#000000" stroke-width="2" stroke-miterlimit="10" d="M211.333,28.454c0,0-7.063-4.022-11.065,4.715"/>
	<path fill="none" stroke="#000000" stroke-width="2" stroke-miterlimit="10" d="M181.57,28.459c0,0-2.163,3.335-4.846,6.12
		c-2.683,2.786-2.267,11.294-2.267,11.294"/>
	<line fill="none" stroke="#000000" stroke-width="2" stroke-miterlimit="10" x1="184.931" y1="44.523" x2="185.629" y2="55.991"/>
	<line fill="none" stroke="#000000" stroke-width="2" stroke-miterlimit="10" x1="190.209" y1="42.232" x2="185.306" y2="50.688"/>
	<path fill="none" stroke="#000000" stroke-width="2" stroke-miterlimit="10" d="M162.272,9.282c0,0,0.219,6.923-3.017,6.765"/>
	<line fill="none" stroke="#000000" stroke-width="2" stroke-miterlimit="10" x1="206.301" y1="39.032" x2="205.509" y2="48.462"/>
	<path fill="none" stroke="#000000" stroke-width="2" stroke-miterlimit="10" d="M218.044,31.522l-1.686,8.864l2.618,0.22
		l3.943,6.884c0,0,4.299,4.889,6.406,4.475"/>
	<path fill="none" stroke="#000000" stroke-width="2" stroke-miterlimit="10" d="M231.622,79.061c0,0,3.104-10.661-3.687-19.518"/>
</g>
<path fill="#FDE8ED" stroke="#000000" stroke-width="3" stroke-miterlimit="10" d="M161.69,400.739c0,0,15.422,67.382,12.993,82.459
	c0,0,2.799,2.518,7.742,0.335c0,0,2.464-60.063-8.6-82.271"/>
<path fill="#FDE8ED" stroke="#000000" stroke-width="3" stroke-miterlimit="10" d="M188.424,391.854c0,0,9.197,73.099,5.392,88.982
	c0,0,2.562,2.911,7.688,0.975c0,0,7.963-63.858-1.031-88.43"/>
<path fill="#665B94" stroke="#000000" stroke-width="2" stroke-miterlimit="10" d="M149.184,375.83l9.161,28.361
	c0,0,13.004,4.154,23.596-0.578l-2.206-13.678l6.138,13.848c0,0,9.561,0.016,22.637-5.813l-3.002-31.291"/>
<path fill="#AD9ECD" stroke="#000000" stroke-width="3" stroke-miterlimit="10" d="M154.382,294.158c0,0-7.842,6.029-8.105,11.224
	c-0.263,5.194-2.619,13.479-2.619,13.479s-0.958,2.354,4.887,1.81"/>
<path fill="#AD9ECD" stroke="#000000" stroke-width="3" stroke-miterlimit="10" d="M210.075,368.477c0,0-60.113,37.352-66.644,2.711
	l5.631-62.478c0,0,5.021-16.163,12.149-15.854c7.128,0.311,31.692-2.219,42.02,12.01L210.075,368.477z"/>
<path fill="#FDE8ED" stroke="#000000" stroke-miterlimit="10" d="M207.559,315.342l7.907,68.008l5.007,4.104l-0.262,13.061
	l-12.123-0.245l0.152-7.534c0,0,4.657-0.75,3.698,2.226l2.7-0.245l-0.514-4.201l-3.526-3.259l-10.433-69.479"/>
<path fill="#FFFFFF" stroke="#000000" stroke-miterlimit="10" d="M211.083,384.475c0,0-4.771,9.301-1.813,11.155
	c2.956,1.856,8.137-2.64,3.744-7.464"/>
<path fill="#AD9ECD" stroke="#000000" stroke-width="3" stroke-miterlimit="10" d="M197.67,310.818l2.609,10.492l11.714-3.889
	l-3.657-16.138c0,0-6.592-7.121-17.703-7.58"/>
<path fill="#D3D3D3" stroke="#000000" stroke-width="3" stroke-miterlimit="10" d="M147.842,280.771l3.917,17.896
	c0,0,6.314,21.313,52.026-6.612l-2.783-29.213c0,0-13.385-9.403-35.538-1.537C143.313,269.169,147.842,280.771,147.842,280.771z"/>
<path fill="#FDE8ED" stroke="#000000" stroke-width="3" stroke-miterlimit="10" d="M86.9,57.233c0,0,1.611,131.155,12.818,152.678
	c11.207,21.523,48.188,45.779,48.188,45.779l5.025,14.782c0,0,7.623,10.85,34.166-4.188l0.664-15.345
	c0,0,52.663-38.99,60.64-167.304C248.401,83.637,145.466,31.445,86.9,57.233z"/>
<path fill="#FFFFFF" stroke="#000000" stroke-width="2" stroke-miterlimit="10" d="M86.854,79.537
	c10.35-25.923,35.315,22.857,35.315,22.857s-3.758,28.679-32.349,35.97C89.82,138.364,76.087,106.507,86.854,79.537z"/>
<path fill="#FFFFFF" stroke="#000000" stroke-width="2" stroke-miterlimit="10" d="M136.532,107.061
	c0,0,16.513,48.515,62.684,28.664c0,0,13.337-27.744-9.704-56.252C189.512,79.473,137.513,84.387,136.532,107.061z"/>
<path d="M106.915,94.332c3.297,0.112,5.811,3.082,5.615,6.633c-0.196,3.551-3.027,6.339-6.324,6.228
	c-3.297-0.112-5.812-3.082-5.615-6.633C100.786,97.008,103.618,94.22,106.915,94.332z"/>
<path d="M174.018,95.69c4.432,0.138,7.811,3.798,7.548,8.175c-0.264,4.377-4.069,7.814-8.5,7.676
	c-4.432-0.138-7.811-3.798-7.548-8.175C165.782,98.989,169.587,95.553,174.018,95.69z"/>
<path fill="#FDE8ED" stroke="#000000" stroke-miterlimit="10" d="M124.706,100.308c0,0-28.797,40.126-20.418,56.428
	c8.379,16.297,54.59,13.533,42.471-12.302"/>
<path fill="#D3D3D3" stroke="#000000" stroke-miterlimit="10" d="M196.552,267.504c0,0-18.238,16.971-41.621,13.957"/>
<path fill="#FDE8ED" stroke="#000000" stroke-width="2" stroke-miterlimit="10" d="M233.739,123.293c0,0,4.347-25.657,24.751-10.959
	c20.4,14.697-11.301,55.451-30.63,53.378"/>
<g enable-background="new    ">
	<g>
		<path d="M329.783,390.611l1.531,12.77l-5.592,0.506c0.31-2.18,0.534-4.105,0.678-5.78c0.143-1.675,0.214-3.394,0.214-5.157
			c0-1.661-0.144-5.28-0.429-10.86c-0.142-2.776-0.213-4.957-0.213-6.541c1.898-0.569,3.763-0.854,5.592-0.854
			c2.372,0,4.131,0.714,5.271,2.141c1.068,1.324,1.603,3.309,1.603,5.956c0,2.024-0.559,3.944-1.674,5.761
			c-1.259,2.024-2.802,3.037-4.63,3.037c-0.475,0-0.984-0.143-1.531-0.429C330.389,391.055,330.116,390.872,329.783,390.611z
			 M329.962,378.74l-0.036,9.303c0.594,0.286,1.199,0.428,1.816,0.428c0.807,0,1.412-0.621,1.815-1.867
			c0.285-0.908,0.428-1.934,0.428-3.076c0-1.4-0.345-2.49-1.032-3.27C332.265,379.479,331.267,378.973,329.962,378.74z"/>
		<path d="M346.77,388.354c0.403,0,0.802,0.053,1.192,0.155c0.394,0.104,0.777,0.248,1.158,0.429v-1.75
			c0-0.806-0.048-1.57-0.144-2.297c-0.096-0.728-0.227-1.414-0.392-2.063c-0.262-0.778-0.559-1.382-0.891-1.812
			c-0.333-0.429-0.712-0.642-1.141-0.642c-0.236,0-0.7,0.376-1.389,1.129c-0.31,0.363-0.601,0.746-0.873,1.147
			c-0.272,0.402-0.492,0.771-0.658,1.109l-3.953-0.039c0.688-1.947,1.697-3.517,3.027-4.711c1.376-1.193,2.683-1.791,3.917-1.791
			c1.425,0,2.706,0.469,3.846,1.402c1.211,0.934,1.923,2.219,2.138,3.854v-0.039c0.261,1.377,0.428,2.959,0.499,4.75
			c0.07,0.83,0.123,1.861,0.159,3.095c0.035,1.233,0.054,2.614,0.054,4.146v3.775l-0.035,3.153l-4.63,0.467v-0.467
			c-0.761,0.467-1.591,0.699-2.492,0.699c-1.496,0-2.742-0.777-3.739-2.335v0.039c-0.831-1.298-1.246-2.751-1.246-4.359
			c0-1.037,0.112-1.973,0.338-2.803c0.227-0.83,0.528-1.545,0.908-2.142c0.499-0.675,1.109-1.192,1.834-1.558
			C344.982,388.537,345.819,388.354,346.77,388.354z M346.912,391.702c-0.643,0-1.116,0.306-1.425,0.915
			c-0.31,0.609-0.463,1.33-0.463,2.16c0,0.908,0.166,1.727,0.499,2.453c0.283,0.805,0.676,1.205,1.175,1.205
			c0.261,0,0.521-0.038,0.782-0.115c0.262-0.078,0.605-0.285,1.033-0.623c0.023-0.96,0.047-1.836,0.071-2.629
			c0.022-0.791,0.047-1.666,0.07-2.627c-0.31-0.26-0.594-0.447-0.854-0.563C347.541,391.761,347.244,391.702,346.912,391.702z"/>
		<path d="M363.15,374.107c1.566,0,2.849,0.844,3.846,2.528c0.403,0.677,1.057,2.298,1.959,4.867l-4.237,0.155
			c0.143-0.52,0.213-1.024,0.213-1.52c0-0.674-0.213-1.466-0.641-2.375c-0.499-1.037-0.997-1.557-1.496-1.557
			c-1.163,0-2.029,0.559-2.6,1.674c-0.476,0.909-0.712,2.038-0.712,3.387c0,1.662,0.865,3.129,2.6,4.398
			c1.614,1.091,3.229,2.182,4.843,3.271c1.757,1.506,2.636,3.36,2.636,5.565c0,2.414-0.683,4.444-2.048,6.093
			c-1.364,1.649-3.14,2.473-5.323,2.473c-2.47,0-4.345-1.052-5.627-3.153c-0.332-0.545-0.974-1.895-1.923-4.05l4.38-1.012
			c0,1.168,0.237,2.259,0.713,3.271c0.594,1.246,1.377,1.869,2.351,1.869c1.258,0,2.124-0.468,2.6-1.401
			c0.356-0.701,0.534-1.791,0.534-3.271c0-1.945-0.783-3.477-2.351-4.592c-1.448-0.986-2.896-1.973-4.344-2.959
			c-1.592-1.559-2.388-3.828-2.388-6.813c0-1.869,0.73-3.479,2.19-4.828C359.785,374.782,361.394,374.107,363.15,374.107z"/>
		<path d="M378.143,375.354c1.282,0,2.528,0.662,3.739,1.984c0.926,1.012,1.745,2.311,2.457,3.893l-4.06,2.453l0.035-0.701
			c0-1.142-0.263-2.258-0.783-3.348c-0.617-1.297-1.413-1.945-2.386-1.945c-0.997,0-1.733,0.414-2.208,1.244
			c-0.381,0.676-0.569,1.609-0.569,2.803c0,2.414,0.901,4.906,2.706,7.476c1.661,2.181,3.335,4.349,5.021,6.501
			c1.827,2.621,2.741,5.126,2.741,7.513c0,2.804-1.223,4.866-3.668,6.189c-1.898,1.038-4.285,1.558-7.157,1.558
			c-2.303,0-4.444-0.169-6.428-0.506c-1.982-0.338-3.888-0.935-5.716-1.791l1.923-2.607c1.188,0.362,2.422,0.739,3.704,1.129
			c1.281,0.39,2.457,0.584,3.524,0.584c1.946,0,3.728-0.272,5.343-0.817c2.326-0.777,3.488-1.984,3.488-3.62
			c0-0.727-0.796-2.103-2.386-4.126c-2.137-2.726-3.62-4.879-4.451-6.462c-1.591-3.037-2.386-6.177-2.386-9.421
			c0-2.153,0.747-4.022,2.243-5.604C374.366,376.146,376.124,375.354,378.143,375.354z"/>
		<path d="M391.317,383.255l0.604,13.119h-3.739c0-1.09-0.034-2.738-0.105-4.944c-0.071-2.205-0.107-3.865-0.107-4.981
			c0-0.415,0.029-0.915,0.089-1.499c0.061-0.583,0.125-1.147,0.196-1.693L391.317,383.255L391.317,383.255z M391.638,380.258
			c0,0.701-0.131,1.246-0.392,1.635c-0.262,0.39-0.688,0.584-1.282,0.584c-0.475,0-0.896-0.162-1.264-0.485
			c-0.368-0.324-0.552-0.746-0.552-1.267c0-0.569,0.213-1.121,0.641-1.653c0.428-0.531,0.902-0.798,1.425-0.798
			c0.45,0,0.801,0.201,1.05,0.604C391.514,379.277,391.638,379.738,391.638,380.258z"/>
		<path d="M403.212,395.751c-2.755,0-5.057-0.935-6.909-2.803c-1.852-1.869-2.776-4.296-2.776-7.28c0-2.465,0.974-4.424,2.92-5.877
			c1.71-1.271,3.728-1.908,6.054-1.908c2.564,0,4.605,0.909,6.125,2.725c1.52,1.817,2.279,4.153,2.279,7.009
			c0,2.491-0.719,4.471-2.154,5.937C407.314,395.02,405.467,395.751,403.212,395.751z M400.541,379.83
			c-1.021,0-1.811,0.441-2.368,1.322c-0.559,0.883-0.837,1.908-0.837,3.076c0,1.012,0.255,2.291,0.766,3.834
			c0.511,1.545,1.086,2.563,1.728,3.056l1.674,1.013c0.143,0.077,0.463,0.271,0.962,0.584c0.427,0.233,0.771,0.35,1.032,0.35
			c0.784,0,1.591-0.375,2.422-1.129c0.831-0.752,1.246-1.543,1.246-2.373l-0.035-0.43c-0.189-2.336-0.796-4.371-1.815-6.111
			C404.078,380.895,402.487,379.83,400.541,379.83z"/>
		<path d="M416.138,405.133l-3.524,0.39c0-1.531,0.048-3.427,0.143-5.685c0.214-5.061,0.32-8.227,0.32-9.498
			c0-1.193-0.048-2.66-0.143-4.398c-0.214-3.944-0.32-6.396-0.32-7.356l2.92-0.312c1.259,1.013,2.493,2.271,3.704,3.775
			c0.854,1.037,2.587,3.503,5.198,7.396c0.356-2.648,0.534-5.309,0.534-7.98c0-1.635-0.154-3.387-0.463-5.256
			c0.521,0,0.979,0.046,1.371,0.137c0.392,0.092,0.908,0.254,1.549,0.486c0,1.35-0.023,2.816-0.07,4.398
			c-0.119,3.944-0.179,6.41-0.179,7.396c0,2.103,0.13,4.464,0.393,7.085c0.166,1.557,0.449,3.919,0.854,7.085l-4.345-0.312
			c-1.354-2.776-2.694-5.566-4.023-8.369c-1.662-3.322-3.229-5.971-4.7-7.941c0,2.023,0.06,4.113,0.178,6.268
			c0.119,2.154,0.25,4.412,0.393,6.773C416.066,401.577,416.138,403.55,416.138,405.133z"/>
	</g>
</g>
<path d="M110.372,192.379c0,0,32.49-8.982,51.908,2.245C162.28,194.625,134.327,174.24,110.372,192.379z"/>
<polyline fill="#FFFFFF" stroke="#000000" stroke-miterlimit="10" points="166.926,305.738 154.483,369.479 169.364,387.374 
	187.118,367.523 174.939,304.723 "/>
<path fill="#FFFFFF" stroke="#000000" stroke-miterlimit="10" d="M162.604,305.699l6.274-8.518l12.257,4.924
	C181.135,302.105,173.292,316.32,162.604,305.699z"/>
<path fill="#FDE8ED" stroke="#000000" stroke-miterlimit="10" d="M258.259,126.07c-8.146-12.059-21.77-4.67-22.345,8.621"/>
<path fill="#FFFFFF" stroke="#000000" stroke-miterlimit="10" d="M114.458,97.878c0,0-12.935-24.129-23.127-19.376"/>
<path fill="#FFFFFF" stroke="#000000" stroke-miterlimit="10" d="M140.137,105.381c0,0-0.631-10.491,42.04-21.353"/>
<path fill="#FDE8ED" stroke="#000000" stroke-miterlimit="10" d="M228.213,157.528c0,0-3.279,29.821-21.094,57.414"/>
<path fill="#FDE8ED" stroke="#000000" stroke-miterlimit="10" d="M123.167,173.76c0,0,20.272,4.146,29.29-11.281"/>
<path fill="#FFFFFF" stroke="#000000" stroke-miterlimit="10" d="M124.431,98.31c0,0-9.989-21.061-18.113-25.879"/>
<path fill="none" stroke="#000000" stroke-miterlimit="10" d="M135.874,95.209c0,0,8.641-13.104,29.657-14.246"/>
<path fill="#E26689" stroke="#000000" stroke-width="2" stroke-miterlimit="10" d="M187.692,484.163c0,0-6.163-12.158-18.173-0.785
	c0,0-23.876,19.402-15.667,27.19c8.209,7.784,39.792,5.808,38.752-3.527L187.692,484.163z"/>
<path fill="#E26689" stroke="#000000" stroke-width="2" stroke-miterlimit="10" d="M204.951,482.696c0,0-10.31-10.412-18.857,5.18
	c0,0-18.048,27.722-7.083,32.988c10.966,5.268,42.638-7.157,38.501-16.368L204.951,482.696z"/>
<path d="M134.113,86.181c0,0,5.93-1.747,10.549-7.312c4.619-5.566,30.123-26.638,44.185-19.097c0,0-2.543-8.286-11.207-9.875
	s-36.949,4.788-37.011,8.429c-0.063,3.64,2.873,7.443,2.873,7.443l-5.461-1.001C138.04,64.768,139.817,75.496,134.113,86.181z"/>
<path d="M210.298,78.021c0,0-36.51-33.334-43.671-22.324l11.012-5.799C177.639,49.897,189.685,45.245,210.298,78.021z"/>
<path d="M115.827,66.242c0,0-34.986,10.051-38.51,8.379l2.78,4.993l-2.991-0.129c0,0,21.133,12.811,43.764-0.453l-5.002-5.095
	l5.26-0.866L115.827,66.242z"/>
<line fill="none" stroke="#000000" stroke-miterlimit="10" x1="225.61" y1="73.476" x2="219.925" y2="134"/>
<path fill="#FDE8ED" stroke="#000000" stroke-miterlimit="10" d="M119.508,212.145c0,0,9.622,6.675,25.781,1.115"/>
<path fill="#FDE8ED" stroke="#000000" stroke-miterlimit="10" d="M159.286,265.893c0,0,7.409,5.229,23.625-4.857"/>
<path fill="#FDE8ED" stroke="#000000" stroke-miterlimit="10" d="M241.919,148.277c0,0,5.75-8.278-2.502-11.435"/>
<g>
	<polygon points="178.733,325.934 161.415,335.016 160.299,340.73 179.637,330.587 	"/>
	<polygon points="176.167,312.693 164.587,318.768 163.472,324.48 177.069,317.35 	"/>
	<polygon points="181.301,339.171 158.243,351.268 157.126,356.98 182.204,343.826 	"/>
	<polygon points="183.868,352.411 155.07,367.518 154.425,370.818 155.678,372.326 184.771,357.064 	"/>
	<polygon points="169.46,306.752 166.868,307.081 166.644,308.23 	"/>
	<polygon points="187.059,368.868 186.436,365.65 161.153,378.913 164.123,382.482 184.394,371.85 	"/>
</g>
<path fill="#FDE8ED" stroke="#000000" stroke-miterlimit="10" d="M109.958,201.95c0,0,18.456,24.767,43.639,1.887"/>
<g enable-background="new    ">
	<g>
		<path d="M353.851,434.741c0-1.321,0.025-2.644,0.077-3.963c0.155-3.982,0.233-6.209,0.233-6.682c0-3.321-0.183-6.625-0.544-9.907
			l12.016-0.171l-0.439,2.889c-0.813-0.096-1.512-0.17-2.099-0.228c-0.587-0.057-1.112-0.085-1.579-0.085
			c-0.501,0-1.147,0.09-1.941,0.27s-1.545,0.345-2.253,0.496l-0.597,5.831l4.844,0.142l-0.751,3.425l-3.521,0.228l-0.053,2.235
			c0,1.774,0.216,3.464,0.646,5.067L353.851,434.741z"/>
		<path d="M372.521,430.467c-2.004,0-3.679-0.68-5.024-2.038c-1.347-1.358-2.021-3.124-2.021-5.294c0-1.793,0.708-3.218,2.123-4.273
			c1.243-0.926,2.711-1.389,4.402-1.389c1.865,0,3.35,0.661,4.455,1.982c1.104,1.32,1.657,3.02,1.657,5.095
			c0,1.813-0.522,3.251-1.567,4.317C375.502,429.933,374.161,430.467,372.521,430.467z M370.579,418.889
			c-0.742,0-1.316,0.321-1.722,0.962c-0.406,0.644-0.609,1.389-0.609,2.236c0,0.736,0.186,1.666,0.558,2.789
			c0.37,1.123,0.789,1.863,1.257,2.222l1.217,0.736c0.104,0.057,0.337,0.198,0.699,0.425c0.311,0.17,0.561,0.255,0.751,0.255
			c0.568,0,1.155-0.272,1.761-0.82c0.604-0.548,0.906-1.123,0.906-1.728l-0.025-0.312c-0.139-1.698-0.579-3.181-1.321-4.444
			C373.151,419.662,371.994,418.889,370.579,418.889z"/>
		<path d="M379.229,425.428c0-0.85-0.087-2.623-0.259-5.321c-0.087-1.358-0.13-2.426-0.13-3.198h2.59l0.077,1.272l-0.052-0.255
			c0-0.319,0.164-0.569,0.492-0.75c0.328-0.179,0.837-0.269,1.527-0.269c1.589,0,2.599,0.612,3.029,1.84
			c0.225,0.623,0.337,1.991,0.337,4.104l-2.253,0.313c-0.121-1.415-0.207-2.274-0.259-2.576c-0.242-1.434-0.563-2.151-0.958-2.151
			c-0.553,0-0.95,0.236-1.191,0.709c-0.173,0.32-0.289,1.457-0.35,3.41c-0.062,1.953-0.091,3.639-0.091,5.054
			c0,1.132,0.039,2.362,0.116,3.693c0.077,1.33,0.245,3.166,0.505,5.506l-3.521,0.143c0-1.133,0.086-3.529,0.259-7.19
			C379.185,427.929,379.229,426.484,379.229,425.428z"/>
	</g>
</g>
<g enable-background="new    ">
	<g>
		<path d="M333.935,469.668c-0.262-3.036-0.796-6.617-1.603-10.744c-0.428-2.18-1.182-5.604-2.262-10.275
			c-1.08-4.672-1.847-8.306-2.297-10.899l6.729,1.206v4.049c0,2.829,0.065,5.463,0.196,7.902c0.13,2.438,0.409,4.774,0.836,7.007
			l2.351-19.191l6.339,0.156l1.745,18.646c0.546-3.011,0.913-5.969,1.104-8.875c0.189-2.906,0.285-6.216,0.285-9.928l6.444-0.738
			c-1.828,5.917-3.182,11.25-4.06,15.999c-1.045,5.657-1.566,11.146-1.566,16.467l-6.268-0.74l-1.141-14.364l-0.996,14.364
			L333.935,469.668z"/>
		<path d="M364.346,461.065c-2.755,0-5.057-0.936-6.908-2.804c-1.853-1.869-2.777-4.295-2.777-7.278c0-2.467,0.974-4.426,2.92-5.878
			c1.71-1.271,3.728-1.908,6.054-1.908c2.564,0,4.605,0.909,6.125,2.726c1.521,1.817,2.279,4.152,2.279,7.007
			c0,2.491-0.718,4.472-2.154,5.938C368.448,460.333,366.601,461.065,364.346,461.065z M361.675,445.144
			c-1.021,0-1.811,0.442-2.368,1.324c-0.559,0.882-0.837,1.907-0.837,3.075c0,1.012,0.255,2.29,0.767,3.834
			c0.51,1.545,1.086,2.563,1.727,3.056l1.674,1.014c0.144,0.077,0.463,0.271,0.962,0.584c0.428,0.232,0.771,0.35,1.032,0.35
			c0.784,0,1.591-0.376,2.422-1.129c0.831-0.752,1.246-1.543,1.246-2.374l-0.035-0.429c-0.189-2.335-0.796-4.372-1.815-6.111
			C365.212,446.208,363.621,445.144,361.675,445.144z"/>
		<path d="M373.568,454.136c0-1.167-0.119-3.605-0.356-7.317c-0.119-1.868-0.178-3.334-0.178-4.398h3.562l0.106,1.752l-0.071-0.351
			c0-0.44,0.227-0.784,0.677-1.031c0.45-0.246,1.151-0.37,2.102-0.37c2.185,0,3.573,0.844,4.167,2.53
			c0.308,0.855,0.463,2.737,0.463,5.645l-3.099,0.43c-0.166-1.947-0.284-3.128-0.355-3.544c-0.333-1.972-0.772-2.957-1.318-2.957
			c-0.76,0-1.306,0.323-1.638,0.973c-0.237,0.44-0.396,2.005-0.479,4.689c-0.084,2.688-0.125,5.003-0.125,6.949
			c0,1.558,0.054,3.25,0.159,5.08c0.107,1.829,0.34,4.354,0.694,7.571l-4.843,0.193c0-1.557,0.118-4.853,0.355-9.888
			C373.509,457.575,373.568,455.59,373.568,454.136z"/>
		<path d="M393.084,469.474h-6.019c0.261-2.725,0.479-5.353,0.657-7.883c0.18-2.53,0.269-4.938,0.269-7.221
			c0-2.492-0.089-4.82-0.269-6.988c-0.178-2.166-0.469-4.976-0.872-8.428h5.094l-0.036,12.535c1.613-0.391,2.825-1.161,3.633-2.316
			c0.807-1.154,1.21-2.641,1.21-4.457c0-1.635-0.213-3.191-0.641-4.671l7.051,1.245c-0.926,2.829-1.936,5.165-3.026,7.007
			c-1.425,2.414-3.087,4.204-4.984,5.372c1.638,2.051,2.884,3.725,3.737,5.021c1.141,1.738,2.048,3.465,2.726,5.178
			c0.677,1.713,1.192,3.737,1.549,6.072l-6.518-0.974c0-3.398-0.166-5.891-0.497-7.475c-0.665-3.114-2.008-4.671-4.024-4.671
			L393.084,469.474z"/>
	</g>
</g>
<g enable-background="new    ">
	<g>
		<path d="M288.958,92.231c0-0.849-0.087-2.623-0.26-5.322c-0.087-1.359-0.13-2.425-0.13-3.199h2.591l0.077,1.274l-0.053-0.254
			c0-0.321,0.164-0.571,0.492-0.75c0.327-0.179,0.838-0.269,1.527-0.269c1.589,0,2.599,0.614,3.029,1.84
			c0.226,0.623,0.338,1.991,0.338,4.104l-2.254,0.312c-0.121-1.416-0.207-2.274-0.258-2.576c-0.242-1.434-0.563-2.151-0.959-2.151
			c-0.554,0-0.949,0.236-1.19,0.708c-0.173,0.321-0.29,1.458-0.351,3.411c-0.062,1.954-0.091,3.638-0.091,5.053
			c0,1.132,0.039,2.364,0.116,3.694c0.078,1.331,0.246,3.166,0.505,5.506l-3.521,0.142c0-1.132,0.086-3.529,0.259-7.19
			C288.914,94.732,288.958,93.289,288.958,92.231z"/>
		<path d="M298.564,91.297c0-2.189,0.414-3.808,1.242-4.855c0.83-1.047,2.211-1.571,4.145-1.571c1.484,0,2.633,0.699,3.443,2.095
			c0.675,1.17,1.011,2.614,1.011,4.331h-6.37c0.018,0.755,0.033,1.51,0.052,2.265c0.086,1.906,0.587,2.859,1.502,2.859
			c0.5,0,0.962-0.151,1.386-0.453c0.424-0.302,0.635-0.708,0.635-1.217c0-0.321-0.043-0.689-0.129-1.104l3.106-0.085
			c-0.432,1.585-0.958,2.68-1.58,3.284c-0.725,0.717-1.813,1.076-3.263,1.076c-1.589,0-2.866-0.68-3.833-2.038
			C299.014,94.638,298.564,93.109,298.564,91.297z M300.714,89.485l3.911-0.113v-0.368c0-0.812-0.165-1.425-0.492-1.84
			c-0.328-0.415-0.854-0.623-1.58-0.623c-0.673,0-1.152,0.217-1.438,0.651c-0.284,0.435-0.428,1.038-0.428,1.812L300.714,89.485z"/>
		<path d="M314.724,91.892c0.294,0,0.583,0.038,0.868,0.113c0.284,0.076,0.564,0.18,0.841,0.312v-1.274
			c0-0.585-0.033-1.142-0.104-1.67c-0.069-0.528-0.164-1.028-0.284-1.5c-0.189-0.566-0.406-1.005-0.646-1.316
			c-0.242-0.312-0.52-0.467-0.829-0.467c-0.173,0-0.511,0.274-1.011,0.821c-0.225,0.264-0.437,0.542-0.635,0.835
			s-0.357,0.562-0.479,0.807l-2.875-0.028c0.501-1.416,1.233-2.557,2.2-3.425c1.001-0.868,1.951-1.302,2.85-1.302
			c1.036,0,1.968,0.34,2.797,1.019c0.881,0.68,1.398,1.614,1.554,2.803v-0.028c0.189,1,0.312,2.151,0.362,3.454
			c0.052,0.604,0.091,1.354,0.117,2.25c0.024,0.896,0.038,1.901,0.038,3.015v2.746l-0.025,2.293l-3.366,0.34v-0.34
			c-0.553,0.34-1.157,0.509-1.813,0.509c-1.087,0-1.993-0.566-2.719-1.698v0.028c-0.604-0.943-0.906-2-0.906-3.17
			c0-0.755,0.082-1.434,0.246-2.039c0.164-0.604,0.384-1.123,0.66-1.557c0.361-0.491,0.807-0.868,1.334-1.132
			C313.425,92.024,314.033,91.892,314.724,91.892z M314.827,94.326c-0.466,0-0.813,0.222-1.035,0.665
			c-0.225,0.444-0.337,0.968-0.337,1.571c0,0.661,0.12,1.255,0.362,1.783c0.207,0.585,0.491,0.878,0.854,0.878
			c0.189,0,0.38-0.028,0.57-0.085c0.188-0.057,0.438-0.208,0.751-0.453c0.017-0.698,0.034-1.335,0.052-1.911
			c0.017-0.576,0.034-1.212,0.052-1.911c-0.225-0.188-0.432-0.326-0.622-0.411C315.284,94.367,315.069,94.326,314.827,94.326z"/>
		<path d="M328.164,101.573c-0.449,0.396-0.776,0.661-0.983,0.792c-0.38,0.246-0.76,0.368-1.14,0.368
			c-1.899,0-3.246-0.368-4.04-1.104c-0.88-0.812-1.32-2.246-1.32-4.303c0-1.849,0.39-3.302,1.165-4.359
			c0.847-1.17,2.099-1.755,3.755-1.755c0.64,0,1.2,0.104,1.685,0.312c0.655,0.283,1.025,0.717,1.113,1.302l0.077-3.454
			c0-1.302-0.073-2.528-0.221-3.68c-0.146-1.151-0.375-2.435-0.687-3.85l4.272,0.113c-0.189,2.284-0.341,4.336-0.453,6.157
			c-0.111,1.821-0.169,3.675-0.169,5.563c0,0.944,0.026,2.048,0.078,3.312c0.121,2.963,0.182,4.822,0.182,5.577l-3.443,0.113
			L328.164,101.573z M327.75,94.893c-0.242-0.321-0.526-0.557-0.854-0.708c-0.328-0.151-0.69-0.227-1.089-0.227
			c-0.346,0-0.682,0.057-1.01,0.17c-0.328,0.113-0.6,0.581-0.814,1.401c-0.216,0.82-0.324,1.515-0.324,2.081
			c0,0.604,0.268,1.199,0.803,1.784s1.079,0.877,1.632,0.877c0.276,0,0.548-0.033,0.815-0.099s0.548-0.165,0.842-0.297
			L327.75,94.893L327.75,94.893z"/>
		<path d="M339.507,105.451c0.655,0,1.104-0.481,1.347-1.444c0.155-0.604,0.232-1.377,0.232-2.321c0-1.283-0.121-2.614-0.362-3.992
			c-0.346,0.283-0.639,0.5-0.881,0.651c-0.362,0.228-0.699,0.34-1.01,0.34c-0.863,0-1.709-0.877-2.537-2.632
			c-0.657-1.396-1.252-3.199-1.787-5.407c-0.38-1.585-0.665-3.047-0.854-4.388l3.936-0.283v1.444c0,2.661,0.187,4.766,0.559,6.313
			c0.37,1.547,0.909,2.321,1.617,2.321c0.362,0,0.683-0.123,0.958-0.368l-0.751-7.36l3.082,0.312c0,1.189-0.048,3.161-0.143,5.917
			c-0.096,2.755-0.144,4.548-0.144,5.378c0,2.114-0.111,3.765-0.337,4.954c-0.432,2.321-1.26,3.482-2.484,3.482
			c-0.934,0-2.081-0.491-3.444-1.472c-1.002-0.717-1.994-1.595-2.979-2.633l3.106-0.764c0.483,0.566,0.906,1,1.271,1.302
			C338.453,105.234,338.988,105.451,339.507,105.451z"/>
	</g>
</g>
<g enable-background="new    ">
	<path d="M298.25,121.179c0,3.088-0.809,6.281-2.422,9.576c-1.875,3.841-4.096,5.761-6.659,5.761c-2.942,0-5.626-1.777-8.048-5.333
		c-2.23-3.295-3.348-6.618-3.348-9.965c0-3.918,0.854-7.344,2.563-10.277c1.97-3.374,4.642-5.061,8.013-5.061
		c2.873,0,5.307,1.83,7.301,5.489C297.383,114.536,298.25,117.805,298.25,121.179z M284.504,121.685
		c0,1.688,0.428,4.075,1.282,7.163c0.997,3.582,1.993,5.372,2.991,5.372c0.734,0,1.472-1.738,2.207-5.216
		c0.617-2.932,0.927-5.099,0.927-6.501c0-1.687-0.392-4.282-1.175-7.785c-0.926-4.1-1.828-6.151-2.707-6.151s-1.721,1.934-2.528,5.8
		C284.836,117.559,284.504,119.998,284.504,121.685z"/>
	<path d="M305.55,142.472l-5.627,0.506c0.31-2.128,0.54-4.023,0.694-5.684c0.154-1.66,0.23-3.412,0.23-5.255
		c0-1.635-0.142-5.242-0.427-10.822c-0.144-2.777-0.214-4.957-0.214-6.54c0.902-0.752,1.828-1.336,2.777-1.752
		c1.115-0.493,2.173-0.739,3.17-0.739c2.064,0,3.607,1.051,4.629,3.153c0.807,1.661,1.211,3.725,1.211,6.189
		c0,2.44-0.796,4.36-2.386,5.761c-1.307,1.168-3.169,1.973-5.591,2.414L305.55,142.472z M304.195,126.2
		c1.307-0.233,2.298-0.733,2.975-1.499c0.677-0.765,1.015-1.862,1.015-3.29c0-1.167-0.131-2.18-0.392-3.036
		c-0.403-1.271-1.009-1.908-1.816-1.908c-0.617,0-1.223,0.143-1.814,0.428L304.195,126.2z"/>
	<path d="M314.416,120.167c0-3.01,0.57-5.236,1.709-6.676c1.14-1.44,3.039-2.16,5.698-2.16c2.041,0,3.62,0.96,4.735,2.88
		c0.927,1.609,1.39,3.595,1.39,5.956h-8.761c0.022,1.038,0.048,2.077,0.07,3.114c0.119,2.622,0.809,3.932,2.065,3.932
		c0.688,0,1.323-0.208,1.904-0.623c0.582-0.415,0.873-0.973,0.873-1.674c0-0.441-0.06-0.947-0.179-1.518l4.273-0.117
		c-0.595,2.18-1.317,3.686-2.172,4.516c-0.997,0.986-2.493,1.479-4.487,1.479c-2.186,0-3.94-0.934-5.271-2.803
		C315.033,124.76,314.416,122.658,314.416,120.167z M317.372,117.675l5.377-0.156v-0.506c0-1.115-0.226-1.959-0.677-2.53
		c-0.451-0.57-1.175-0.856-2.172-0.856c-0.927,0-1.585,0.298-1.978,0.895c-0.392,0.597-0.588,1.428-0.588,2.491L317.372,117.675z"/>
	<path d="M334.465,137.762l-3.524,0.389c0-1.531,0.048-3.425,0.143-5.683c0.214-5.061,0.32-8.227,0.32-9.499
		c0-1.193-0.048-2.66-0.143-4.399c-0.214-3.944-0.32-6.396-0.32-7.357l2.92-0.312c1.259,1.012,2.493,2.271,3.704,3.776
		c0.854,1.038,2.587,3.503,5.198,7.396c0.356-2.647,0.534-5.307,0.534-7.98c0-1.635-0.155-3.387-0.463-5.255
		c0.521,0,0.979,0.045,1.371,0.136c0.392,0.091,0.908,0.253,1.549,0.486c0,1.35-0.023,2.816-0.071,4.399
		c-0.118,3.945-0.178,6.41-0.178,7.396c0,2.102,0.13,4.464,0.393,7.085c0.165,1.557,0.449,3.919,0.854,7.085l-4.345-0.312
		c-1.354-2.777-2.694-5.567-4.023-8.37c-1.662-3.321-3.229-5.969-4.701-7.941c0,2.024,0.061,4.113,0.179,6.267
		c0.118,2.154,0.25,4.412,0.393,6.773C334.394,134.207,334.465,136.179,334.465,137.762z"/>
</g>
<g enable-background="new    ">
	<g>
		<path d="M292.014,153.644c0,1.868,0.086,3.85,0.26,5.944c0.119,1.51,0.336,3.492,0.646,5.945l-3.703,0.085
			c0-0.981,0.034-2.18,0.104-3.595c0.156-3.208,0.232-5.208,0.232-6.001c0-1.51-0.029-2.874-0.09-4.091
			c-0.063-1.217-0.169-2.76-0.324-4.628c-0.087-0.943-0.225-2.387-0.414-4.331l3.78-0.311c-0.172,2.151-0.298,4.034-0.375,5.647
			C292.052,149.921,292.014,151.7,292.014,153.644z"/>
		<path d="M302.863,163.977c-0.449,0.396-0.776,0.661-0.984,0.792c-0.38,0.246-0.76,0.368-1.139,0.368
			c-1.899,0-3.246-0.368-4.04-1.104c-0.882-0.812-1.32-2.246-1.32-4.303c0-1.849,0.388-3.302,1.165-4.359
			c0.846-1.17,2.098-1.755,3.755-1.755c0.64,0,1.199,0.104,1.685,0.312c0.654,0.283,1.025,0.717,1.113,1.302l0.076-3.454
			c0-1.302-0.072-2.528-0.22-3.68c-0.146-1.151-0.376-2.435-0.687-3.85l4.272,0.113c-0.19,2.284-0.342,4.336-0.453,6.157
			c-0.112,1.821-0.169,3.675-0.169,5.563c0,0.944,0.025,2.048,0.078,3.312c0.12,2.963,0.181,4.822,0.181,5.577l-3.442,0.113
			L302.863,163.977z M302.449,157.296c-0.242-0.321-0.527-0.557-0.854-0.708c-0.328-0.151-0.691-0.227-1.089-0.227
			c-0.346,0-0.683,0.057-1.01,0.17c-0.328,0.113-0.601,0.581-0.815,1.401c-0.217,0.821-0.324,1.515-0.324,2.081
			c0,0.604,0.269,1.199,0.804,1.784c0.534,0.585,1.079,0.877,1.632,0.877c0.275,0,0.548-0.033,0.814-0.099
			c0.269-0.066,0.549-0.165,0.843-0.297L302.449,157.296L302.449,157.296z"/>
		<path d="M308.301,153.701c0-2.189,0.415-3.808,1.243-4.855c0.829-1.047,2.21-1.571,4.145-1.571c1.484,0,2.633,0.699,3.443,2.095
			c0.674,1.17,1.01,2.614,1.01,4.331h-6.369c0.017,0.755,0.033,1.51,0.052,2.265c0.086,1.906,0.587,2.859,1.502,2.859
			c0.501,0,0.962-0.151,1.386-0.453c0.423-0.302,0.635-0.708,0.635-1.217c0-0.321-0.044-0.689-0.13-1.104l3.107-0.085
			c-0.433,1.585-0.958,2.68-1.58,3.284c-0.725,0.717-1.813,1.076-3.263,1.076c-1.589,0-2.866-0.68-3.833-2.038
			C308.75,157.041,308.301,155.512,308.301,153.701z M310.45,151.889l3.911-0.113v-0.368c0-0.812-0.164-1.425-0.492-1.84
			s-0.854-0.623-1.58-0.623c-0.673,0-1.152,0.217-1.438,0.651c-0.283,0.435-0.427,1.038-0.427,1.812L310.45,151.889z"/>
		<path d="M324.46,154.295c0.294,0,0.583,0.038,0.868,0.113c0.284,0.076,0.563,0.18,0.841,0.312v-1.274
			c0-0.585-0.034-1.142-0.104-1.67c-0.069-0.528-0.164-1.028-0.284-1.5c-0.19-0.566-0.406-1.005-0.647-1.316
			c-0.242-0.312-0.519-0.467-0.829-0.467c-0.173,0-0.51,0.274-1.01,0.821c-0.225,0.264-0.437,0.542-0.635,0.835
			s-0.358,0.562-0.479,0.807l-2.875-0.028c0.501-1.416,1.234-2.557,2.201-3.425c1.001-0.868,1.951-1.302,2.849-1.302
			c1.036,0,1.969,0.34,2.798,1.019c0.881,0.68,1.397,1.614,1.554,2.803v-0.028c0.188,1,0.311,2.151,0.362,3.454
			c0.052,0.604,0.091,1.354,0.116,2.25s0.038,1.901,0.038,3.015v2.746l-0.024,2.293l-3.366,0.34v-0.34
			c-0.553,0.34-1.157,0.509-1.813,0.509c-1.087,0-1.992-0.566-2.719-1.698v0.028c-0.604-0.943-0.906-2-0.906-3.17
			c0-0.755,0.082-1.434,0.246-2.039c0.164-0.604,0.385-1.123,0.66-1.557c0.362-0.491,0.808-0.868,1.334-1.132
			C323.161,154.427,323.77,154.295,324.46,154.295z M324.563,156.729c-0.466,0-0.812,0.222-1.034,0.665
			c-0.226,0.444-0.337,0.968-0.337,1.571c0,0.661,0.119,1.255,0.361,1.783c0.207,0.585,0.492,0.878,0.854,0.878
			c0.188,0,0.38-0.028,0.569-0.085s0.439-0.208,0.751-0.453c0.018-0.698,0.034-1.335,0.053-1.911
			c0.017-0.576,0.034-1.212,0.052-1.911c-0.225-0.188-0.432-0.326-0.622-0.411S324.806,156.729,324.563,156.729z"/>
		<path d="M336.373,143.934c1.14,0,2.071,0.614,2.797,1.84c0.293,0.491,0.768,1.67,1.424,3.539l-3.081,0.113
			c0.104-0.377,0.155-0.746,0.155-1.104c0-0.49-0.155-1.066-0.467-1.728c-0.362-0.754-0.726-1.132-1.087-1.132
			c-0.848,0-1.478,0.406-1.892,1.217c-0.346,0.661-0.518,1.482-0.518,2.463c0,1.208,0.63,2.274,1.89,3.199
			c1.174,0.792,2.349,1.585,3.522,2.378c1.276,1.095,1.916,2.444,1.916,4.048c0,1.755-0.496,3.232-1.489,4.43
			c-0.993,1.199-2.283,1.798-3.871,1.798c-1.796,0-3.159-0.765-4.092-2.293c-0.242-0.396-0.708-1.377-1.398-2.944l3.187-0.736
			c0,0.849,0.172,1.642,0.518,2.378c0.433,0.906,1.001,1.359,1.709,1.359c0.915,0,1.545-0.34,1.892-1.019
			c0.259-0.51,0.389-1.302,0.389-2.378c0-1.416-0.57-2.529-1.709-3.34c-1.054-0.717-2.106-1.434-3.159-2.151
			c-1.157-1.132-1.734-2.784-1.734-4.954c0-1.359,0.529-2.529,1.593-3.51C333.926,144.425,335.095,143.934,336.373,143.934z"/>
	</g>
</g>
<rect x="220.473" y="431" fill="#D3D3D3" stroke="#000000" stroke-width="2" stroke-miterlimit="10" width="91.118" height="75.5"/>
<line fill="none" stroke="#000000" stroke-miterlimit="10" x1="226" y1="440.5" x2="226" y2="496.954"/>
<line fill="none" stroke="#000000" stroke-miterlimit="10" x1="232.5" y1="431" x2="232.5" y2="468.75"/>
<line fill="none" stroke="#000000" stroke-miterlimit="10" x1="306" y1="431" x2="306" y2="454"/>
<g enable-background="new    ">
	<g>
		<path d="M239.362,441.909h2.098l-0.104-3.454h2.642l-0.207,3.454h3.625v3.227l-3.833-0.198l0.233,8.747
			c0.034,0.719,0.078,1.427,0.129,2.124c0.086,0.604,0.224,0.905,0.414,0.905c0.363,0,0.656-0.66,0.881-1.98
			c0.172-1.473,0.276-2.341,0.311-2.604l3.056,1.048c-0.483,2.038-1.148,3.548-1.994,4.529c-0.708,0.812-1.519,1.217-2.434,1.217
			c-0.708,0-1.312-0.16-1.813-0.48c-0.604-0.377-0.907-0.935-0.907-1.67v-12.004l-2.227,0.085L239.362,441.909z"/>
		<path d="M256.583,455.412c-2.003,0-3.677-0.68-5.024-2.038c-1.347-1.359-2.02-3.124-2.02-5.294c0-1.793,0.708-3.218,2.124-4.274
			c1.243-0.925,2.71-1.388,4.402-1.388c1.864,0,3.349,0.661,4.454,1.982c1.104,1.319,1.657,3.02,1.657,5.095
			c0,1.813-0.522,3.251-1.566,4.316C259.565,454.879,258.223,455.412,256.583,455.412z M254.641,443.834
			c-0.743,0-1.317,0.321-1.722,0.962c-0.406,0.644-0.608,1.388-0.608,2.236c0,0.735,0.185,1.666,0.557,2.789
			c0.371,1.123,0.79,1.862,1.256,2.222l1.217,0.736c0.104,0.057,0.336,0.197,0.699,0.425c0.311,0.17,0.561,0.255,0.751,0.255
			c0.57,0,1.156-0.273,1.761-0.821c0.604-0.547,0.907-1.123,0.907-1.727l-0.026-0.313c-0.139-1.697-0.579-3.18-1.321-4.443
			C257.213,444.607,256.057,443.834,254.641,443.834z"/>
		<path d="M269.946,455.412c-2.003,0-3.677-0.68-5.024-2.038c-1.347-1.359-2.02-3.124-2.02-5.294c0-1.793,0.708-3.218,2.124-4.274
			c1.243-0.925,2.71-1.388,4.402-1.388c1.864,0,3.349,0.661,4.454,1.982c1.104,1.319,1.657,3.02,1.657,5.095
			c0,1.813-0.521,3.251-1.566,4.316C272.928,454.879,271.586,455.412,269.946,455.412z M268.003,443.834
			c-0.743,0-1.317,0.321-1.722,0.962c-0.406,0.644-0.608,1.388-0.608,2.236c0,0.735,0.185,1.666,0.557,2.789
			c0.371,1.123,0.79,1.862,1.256,2.222l1.217,0.736c0.104,0.057,0.336,0.197,0.699,0.425c0.311,0.17,0.561,0.255,0.751,0.255
			c0.57,0,1.156-0.273,1.761-0.821c0.604-0.547,0.906-1.123,0.906-1.727l-0.025-0.313c-0.139-1.697-0.579-3.18-1.32-4.443
			C270.576,444.607,269.419,443.834,268.003,443.834z"/>
		<path d="M276.602,442.503l2.642,0.283l-0.183,13.503h6.424l-0.416,3.624l-8.313-0.906L276.602,442.503z"/>
	</g>
</g>
<g enable-background="new    ">
	<g>
		<path d="M247.826,484.056c-1.33,0-2.685-0.207-4.066-0.623c0-1.207,0.104-3.84,0.311-7.896c0.104-2.021,0.155-3.604,0.155-4.756
			c0-1.283-0.052-2.533-0.155-3.751c-0.104-1.218-0.268-2.618-0.492-4.203l4.066,0.367l-1.166,10.615
			c0.5-0.548,0.941-0.938,1.321-1.175c0.379-0.235,0.716-0.354,1.01-0.354c1.295,0,2.313,0.65,3.056,1.954
			c0.639,1.112,0.958,2.425,0.958,3.935c0,1.925-0.38,3.368-1.14,4.331C250.855,483.537,249.569,484.056,247.826,484.056z
			 M246.583,482.103c0.812-0.132,1.528-0.425,2.149-0.878c0.794-0.564,1.191-1.244,1.191-2.037c0-0.718-0.147-1.65-0.44-2.803
			c-0.362-1.416-0.76-2.123-1.191-2.123c-0.363,0-0.751,0.169-1.166,0.51c-0.069,0.057-0.259,0.245-0.57,0.565L246.583,482.103z"/>
		<path d="M261.266,478.31c-2.003,0-3.677-0.68-5.024-2.037c-1.347-1.359-2.02-3.124-2.02-5.295c0-1.793,0.708-3.218,2.124-4.273
			c1.243-0.925,2.71-1.388,4.402-1.388c1.864,0,3.349,0.66,4.454,1.981c1.104,1.32,1.657,3.021,1.657,5.095
			c0,1.813-0.522,3.251-1.566,4.317C264.248,477.776,262.905,478.31,261.266,478.31z M259.323,466.731
			c-0.743,0-1.317,0.32-1.722,0.962c-0.406,0.643-0.608,1.388-0.608,2.235c0,0.736,0.185,1.666,0.557,2.789
			c0.371,1.123,0.79,1.863,1.256,2.223l1.217,0.735c0.104,0.058,0.336,0.198,0.699,0.425c0.311,0.17,0.561,0.255,0.751,0.255
			c0.57,0,1.156-0.272,1.761-0.82c0.604-0.547,0.907-1.123,0.907-1.728l-0.026-0.312c-0.139-1.698-0.579-3.18-1.321-4.444
			C261.896,467.505,260.739,466.731,259.323,466.731z"/>
		<path d="M271.857,461.551c-0.226,0.925-0.338,1.793-0.338,2.604c0,1.565,0.371,2.981,1.113,4.246
			c0.483,0.831,1.381,1.943,2.693,3.341c1.087-1.604,1.77-2.718,2.046-3.341c0.5-1.133,0.75-2.453,0.75-3.964h4.455
			c-0.328,1.831-0.894,3.576-1.696,5.237c-0.803,1.66-1.809,3.189-3.018,4.586c2.313,2.473,3.721,5.436,4.222,8.89l-4.608-0.708
			c0.067-0.377,0.104-0.803,0.104-1.274c0-1.037-0.232-1.98-0.699-2.83c-0.275-0.528-0.846-1.293-1.709-2.293
			c-1.156,0.434-1.969,0.905-2.436,1.415c-0.621,0.661-0.933,1.604-0.933,2.831c0,0.962,0.242,1.803,0.726,2.52h-4.117l-0.026-1.02
			c0-1.528,0.315-3.005,0.945-4.43c0.63-1.426,1.487-2.647,2.575-3.666c-1-1.963-1.851-3.974-2.549-6.03
			c-0.699-2.057-1.239-4.161-1.619-6.313L271.857,461.551z"/>
	</g>
</g>
<polygon fill="#D3D3D3" stroke="#000000" stroke-width="2" stroke-miterlimit="10" points="311.591,431 220.473,431 230.473,419 
	301.591,419 "/>
<line fill="none" stroke="#000000" stroke-miterlimit="10" x1="230.473" y1="419" x2="230.473" y2="427"/>
<line fill="none" stroke="#000000" stroke-miterlimit="10" x1="301.5" y1="425" x2="232.5" y2="425"/>
<line fill="none" stroke="#000000" stroke-miterlimit="10" x1="273" y1="423" x2="232.5" y2="423"/>
<polygon fill="#FFFFFF" stroke="#000000" stroke-miterlimit="10" points="286.5,390.268 273,431 283.236,431 297,391.854 "/>
<ellipse transform="matrix(-0.979 -0.2038 0.2038 -0.979 497.8306 831.8123)" fill="#FFFFFF" stroke="#000000" stroke-miterlimit="10" cx="291.75" cy="390.27" rx="5.249" ry="2.895"/>
<line fill="none" stroke="#000000" stroke-miterlimit="10" x1="291.16" y1="393.102" x2="278" y2="431"/>
<polygon fill="#FFFFFF" stroke="#000000" stroke-miterlimit="10" points="294.816,407.798 287.787,431 296.43,431 303.682,409.384 
	"/>
<path fill="#FFFFFF" stroke="#000000" stroke-miterlimit="10" d="M303.587,408.867c-0.274,1.564-2.44,2.354-4.837,1.766
	c-2.396-0.591-4.116-2.338-3.841-3.904c0.274-1.563,2.44-2.354,4.837-1.766C302.143,405.554,303.861,407.302,303.587,408.867z"/>
<line fill="none" stroke="#000000" stroke-miterlimit="10" x1="298.75" y1="410.633" x2="292.008" y2="431"/>
<path fill="none" stroke="#000000" stroke-width="2" stroke-miterlimit="10" d="M338.005,76.46c0,0-53.358-61.358-80.741-28.228
	h14.741h-20.25l5.509-13.44"/>
<line fill="none" stroke="#000000" stroke-miterlimit="10" x1="160.299" y1="410.633" x2="166" y2="442.581"/>
<path fill="none" stroke="#000000" stroke-miterlimit="10" d="M160.299,487c0,0-24.032,20.779-8.166,28.39"/>
<path fill="none" stroke="#000000" stroke-miterlimit="10" d="M170.8,518.5c0,0,0.318,9,16.259,8"/>
<line fill="none" stroke="#000000" stroke-miterlimit="10" x1="233.028" y1="511" x2="267" y2="511"/>
<line fill="none" stroke="#000000" stroke-miterlimit="10" x1="211.994" y1="324.596" x2="216.359" y2="356.865"/>
<line fill="none" stroke="#000000" stroke-miterlimit="10" x1="179.637" y1="315.342" x2="188.424" y2="356.865"/>
<path fill="none" stroke="#000000" stroke-miterlimit="10" d="M170.271,300.5c0,0,9.463,2.568,5.471,4.534"/>
<line fill="none" stroke="#000000" stroke-miterlimit="10" x1="184.771" y1="374.066" x2="173.497" y2="387.374"/>
<line fill="none" stroke="#000000" stroke-miterlimit="10" x1="166.644" y1="324.596" x2="177.628" y2="318.587"/>
<line fill="none" stroke="#000000" stroke-miterlimit="10" x1="171.099" y1="337.25" x2="180.192" y2="331.811"/>
<polyline fill="none" stroke="#000000" stroke-miterlimit="10" points="194.25,312.693 196.59,325.934 199.25,324.596 
	204.757,362.369 "/>
<path fill="none" stroke="#000000" stroke-miterlimit="10" d="M147.46,294.158c0,0-4.099,6.877-4.03,8.609
	c0.069,1.73-2.43,14.731-2.43,14.731"/>
<path fill="none" stroke="#000000" stroke-miterlimit="10" d="M135.25,242.25c0,0,13,12.75,21.75,10.25"/>
<line fill="none" stroke="#000000" stroke-miterlimit="10" x1="127" y1="192.5" x2="127" y2="201.95"/>
<path fill="none" stroke="#000000" stroke-miterlimit="10" d="M158.2,132c0,0,18.498,11.999,37.649,2"/>
<path fill="none" stroke="#000000" stroke-miterlimit="10" d="M116.667,111.548c0,0-6.338,17.167-25.335,23.143
	c0,0-4.998-14.39-5.665-24.707"/>
<path d="M68.5,278.497c0,0,12.3-11.882,18.4,3.812c6.1,15.692-18.386,54.844,23.607,65.769l9.001-4.789
	c0,0,16.486-25.788-15.008-64.79C79.5,247.538,68.5,278.497,68.5,278.497z"/>
<path fill="#FFFFFF" stroke="#000000" stroke-miterlimit="10" d="M146.125,442.5c0,0-5.625-65.039-28.125-101.77l-7.984,2.77
	c0,0,1.984,35,30.984,102C141,445.5,147.307,452.862,146.125,442.5z"/>
<path fill="#FDE8ED" stroke="#000000" stroke-miterlimit="10" d="M118.907,388.826c0,0-4.41-0.881-3.738-6.197
	c0,0-3.65-0.568-2.78-5.324c0,0-3.175-0.806-2.181-5.074l8.857-8.013c0,0,2.558,2.326,2.484,3.685
	c-0.073,1.356-6.289,7.305-6.289,7.305l10.457-6.896c0,0,5.68,2.213,3.95,4.146c-1.729,1.934-11.854,8.779-11.854,8.779l6.98-3.025
	c0,0,4.19,1.08,2.778,2.967C126.159,383.064,118.907,388.826,118.907,388.826z"/>
<path fill="#FFFFFF" stroke="#000000" stroke-miterlimit="10" d="M107.5,292.852c0,0,13.249,19.885,9,34.879
	c0,0-3.084,6.138-6.542-1.797C106.5,318,112.5,320.411,105,293.705"/>
<g enable-background="new    ">
	<g>
		<path d="M288.029,287.33l1.113,9.285l-4.064,0.367c0.224-1.584,0.388-2.985,0.49-4.203c0.104-1.217,0.156-2.467,0.156-3.75
			c0-1.209-0.104-3.842-0.312-7.898c-0.104-2.02-0.155-3.604-0.155-4.756c1.381-0.415,2.736-0.622,4.065-0.622
			c1.727,0,3.005,0.519,3.833,1.558c0.777,0.961,1.164,2.405,1.164,4.33c0,1.473-0.404,2.869-1.217,4.189
			c-0.914,1.472-2.037,2.208-3.365,2.208c-0.346,0-0.717-0.104-1.114-0.312C288.471,287.65,288.271,287.52,288.029,287.33z
			 M288.159,278.695l-0.025,6.767c0.431,0.208,0.871,0.312,1.32,0.312c0.587,0,1.026-0.453,1.319-1.357
			c0.209-0.661,0.313-1.406,0.313-2.236c0-1.02-0.251-1.813-0.751-2.377C289.834,279.234,289.107,278.866,288.159,278.695z"/>
		<path d="M302.766,291.066c-2.004,0-3.679-0.68-5.024-2.037c-1.347-1.359-2.021-3.125-2.021-5.295c0-1.793,0.709-3.217,2.123-4.273
			c1.243-0.925,2.711-1.388,4.402-1.388c1.865,0,3.35,0.661,4.455,1.981c1.104,1.32,1.657,3.021,1.657,5.096
			c0,1.813-0.522,3.25-1.567,4.316S304.404,291.066,302.766,291.066z M300.822,279.489c-0.742,0-1.316,0.321-1.723,0.962
			c-0.406,0.643-0.608,1.388-0.608,2.236c0,0.735,0.186,1.666,0.558,2.789c0.37,1.123,0.789,1.862,1.256,2.222l1.217,0.735
			c0.104,0.058,0.338,0.198,0.699,0.426c0.312,0.17,0.562,0.254,0.752,0.254c0.568,0,1.155-0.272,1.76-0.82
			c0.604-0.547,0.906-1.123,0.906-1.727l-0.024-0.313c-0.14-1.697-0.579-3.18-1.321-4.443
			C303.395,280.264,302.236,279.489,300.822,279.489z"/>
		<path d="M309.42,278.158l2.643,0.283l-0.183,13.502h6.422l-0.414,3.625l-8.313-0.906L309.42,278.158z"/>
		<path d="M321.927,281.98l0.44,9.539h-2.719c0-0.793-0.026-1.99-0.078-3.596c-0.053-1.604-0.077-2.813-0.077-3.623
			c0-0.302,0.021-0.664,0.063-1.09c0.043-0.425,0.092-0.835,0.144-1.23H321.927L321.927,281.98z M322.16,279.801
			c0,0.51-0.095,0.905-0.285,1.188c-0.189,0.283-0.501,0.426-0.932,0.426c-0.347,0-0.652-0.117-0.92-0.354
			c-0.269-0.238-0.401-0.543-0.401-0.92c0-0.416,0.155-0.816,0.467-1.203c0.312-0.388,0.655-0.582,1.035-0.582
			c0.328,0,0.583,0.146,0.765,0.439C322.069,279.088,322.16,279.423,322.16,279.801z"/>
		<path d="M335.988,286.34l-3.471,0.34c-0.12-1.473-0.303-2.586-0.544-3.341c-0.448-1.396-1.147-2.095-2.098-2.095
			c-0.726,0-1.282,0.718-1.671,2.15c-0.388,1.436-0.582,3.426-0.582,5.974c0,1.681,0.112,2.831,0.337,3.454
			c0.414,1.132,1.277,1.697,2.589,1.697c0.397,0,0.699-0.08,0.906-0.24c0.208-0.159,0.312-0.457,0.312-0.891
			c0-0.396-0.034-0.854-0.104-1.373c-0.069-0.52-0.113-0.873-0.13-1.063l3.833-0.143c0,1.453-0.415,2.662-1.243,3.623
			c-0.829,0.963-1.908,1.444-3.237,1.444c-2.175,0-3.91-0.812-5.205-2.435c-1.226-1.529-1.839-3.512-1.839-5.945
			c0-2.096,0.708-3.995,2.124-5.704c1.415-1.707,3.072-2.562,4.973-2.562c1.483,0,2.728,0.803,3.729,2.406
			C335.548,283.057,335.988,284.623,335.988,286.34z"/>
		<path d="M339.588,281.98l0.44,9.539h-2.72c0-0.793-0.025-1.99-0.077-3.596c-0.053-1.604-0.077-2.813-0.077-3.623
			c0-0.302,0.021-0.664,0.063-1.09c0.043-0.425,0.091-0.835,0.144-1.23H339.588L339.588,281.98z M339.821,279.801
			c0,0.51-0.096,0.905-0.285,1.188c-0.189,0.283-0.501,0.426-0.933,0.426c-0.346,0-0.651-0.117-0.92-0.354
			c-0.268-0.238-0.4-0.543-0.4-0.92c0-0.416,0.154-0.816,0.467-1.203c0.311-0.388,0.655-0.582,1.035-0.582
			c0.328,0,0.583,0.146,0.765,0.439C339.73,279.088,339.821,279.423,339.821,279.801z"/>
		<path d="M341.479,285.094c0-2.188,0.414-3.807,1.243-4.854c0.828-1.049,2.209-1.571,4.144-1.571c1.484,0,2.633,0.698,3.443,2.095
			c0.675,1.172,1.011,2.614,1.011,4.331h-6.37c0.017,0.757,0.034,1.511,0.052,2.265c0.086,1.906,0.587,2.859,1.502,2.859
			c0.501,0,0.962-0.15,1.386-0.453c0.424-0.302,0.636-0.707,0.636-1.217c0-0.32-0.044-0.688-0.13-1.104l3.106-0.086
			c-0.432,1.586-0.958,2.682-1.58,3.285c-0.725,0.717-1.813,1.074-3.263,1.074c-1.588,0-2.866-0.679-3.832-2.037
			C341.927,288.436,341.479,286.906,341.479,285.094z M343.628,283.282l3.91-0.113v-0.368c0-0.811-0.164-1.425-0.492-1.84
			s-0.854-0.623-1.58-0.623c-0.673,0-1.151,0.219-1.437,0.651c-0.285,0.435-0.429,1.038-0.429,1.812L343.628,283.282z"/>
		<path d="M359.32,275.328c1.14,0,2.07,0.613,2.797,1.84c0.293,0.491,0.768,1.67,1.424,3.538l-3.081,0.112
			c0.104-0.377,0.155-0.744,0.155-1.104c0-0.49-0.155-1.066-0.467-1.727c-0.362-0.756-0.726-1.133-1.088-1.133
			c-0.847,0-1.477,0.406-1.891,1.217c-0.346,0.66-0.518,1.482-0.518,2.463c0,1.208,0.63,2.273,1.89,3.199
			c1.174,0.793,2.348,1.584,3.522,2.377c1.276,1.096,1.916,2.445,1.916,4.049c0,1.755-0.496,3.232-1.489,4.431
			c-0.993,1.199-2.283,1.798-3.871,1.798c-1.796,0-3.159-0.765-4.092-2.293c-0.242-0.396-0.708-1.378-1.398-2.943l3.187-0.736
			c0,0.85,0.172,1.643,0.518,2.378c0.432,0.906,1.001,1.358,1.709,1.358c0.915,0,1.545-0.34,1.891-1.02
			c0.26-0.51,0.39-1.303,0.39-2.378c0-1.416-0.57-2.528-1.709-3.341c-1.055-0.717-2.106-1.434-3.159-2.15
			c-1.157-1.133-1.735-2.783-1.735-4.955c0-1.357,0.53-2.527,1.593-3.51C356.873,275.818,358.042,275.328,359.32,275.328z"/>
	</g>
</g>
<g>
	<path d="M279.868,256.869l0.819-0.156c1.14,0,2.029,1,2.67,2.998c0.476,1.505,0.713,3.05,0.713,4.632
		c0,1.869-0.807,3.387-2.422,4.555c-1.424,1.012-3.039,1.518-4.844,1.518c-1.731,0-3.418-0.246-5.057-0.74
		c0-2.154,0.054-4.703,0.16-7.649c0.107-2.945,0.22-5.897,0.339-8.856c0.118-2.958,0.178-5.528,0.178-7.708
		c0-1.635-0.178-3.231-0.534-4.788c1.496-0.389,3.027-0.583,4.594-0.583c2.423,0,4.332,0.649,5.733,1.946
		c1.496,1.401,2.243,3.4,2.243,5.995c0,2.18-0.309,3.945-0.926,5.294C282.801,254.91,281.578,256.091,279.868,256.869z
		 M275.951,254.105c1.875-0.83,3.074-1.842,3.597-3.036c0.38-0.882,0.57-2.608,0.57-5.178c0-1.193-0.416-2.076-1.247-2.647
		c-0.688-0.467-1.626-0.701-2.813-0.701h-0.285L275.951,254.105z M276.13,267.613h0.498c1.377,0,2.263-0.266,2.653-0.798
		c0.392-0.532,0.658-1.577,0.801-3.134l0.107-1.401c0-0.986-0.394-1.752-1.176-2.297c-0.57-0.389-1.378-0.662-2.422-0.817
		L276.13,267.613z"/>
	<path d="M286.634,254.923c0-0.934-0.034-1.985-0.106-3.153c-0.07-1.168-0.154-2.193-0.25-3.076l6.055,1.596
		c-0.402,2.362-0.7,4.477-0.891,6.345c-0.189,1.869-0.284,3.802-0.284,5.8v0.701c0,1.272,0.106,2.219,0.319,2.842
		c0.332,0.986,0.949,1.479,1.854,1.479c1.923,0,3.264-1.466,4.023-4.399c0.451-1.764,0.676-4.061,0.676-6.89
		c0-2.127-0.059-4.165-0.178-6.111c-0.119-1.946-0.297-3.932-0.533-5.956l5.805-1.207c-0.452,2.88-0.79,5.561-1.016,8.039
		c-0.227,2.479-0.338,5.028-0.338,7.649c0,4.568-0.701,7.773-2.103,9.615c-1.188,1.557-2.92,2.336-5.199,2.336
		c-2.137,0-4-0.558-5.591-1.674c-1.828-1.271-2.742-3.01-2.742-5.216c0-0.959,0.083-2.414,0.25-4.36
		C286.551,257.336,286.634,255.883,286.634,254.923z"/>
	<path d="M313.307,240.948c1.567,0,2.85,0.844,3.847,2.53c0.402,0.675,1.057,2.297,1.959,4.866l-4.237,0.156
		c0.142-0.519,0.213-1.025,0.213-1.518c0-0.675-0.213-1.466-0.641-2.375c-0.499-1.038-0.997-1.557-1.496-1.557
		c-1.163,0-2.029,0.558-2.601,1.674c-0.475,0.909-0.712,2.038-0.712,3.387c0,1.661,0.866,3.127,2.601,4.398
		c1.614,1.09,3.229,2.18,4.843,3.27c1.757,1.505,2.636,3.361,2.636,5.567c0,2.413-0.683,4.444-2.048,6.092s-3.14,2.472-5.324,2.472
		c-2.469,0-4.344-1.051-5.626-3.153c-0.333-0.545-0.974-1.894-1.923-4.048l4.38-1.012c0,1.168,0.237,2.258,0.712,3.27
		c0.595,1.246,1.377,1.869,2.352,1.869c1.258,0,2.124-0.467,2.6-1.401c0.356-0.701,0.534-1.791,0.534-3.27
		c0-1.946-0.783-3.478-2.351-4.594c-1.448-0.986-2.896-1.972-4.345-2.958c-1.591-1.557-2.387-3.828-2.387-6.812
		c0-1.869,0.73-3.478,2.19-4.827C309.941,241.623,311.55,240.948,313.307,240.948z"/>
	<path d="M324.025,250.096l0.604,13.119h-3.739c0-1.09-0.034-2.738-0.105-4.944c-0.071-2.205-0.107-3.866-0.107-4.982
		c0-0.415,0.029-0.915,0.089-1.499c0.061-0.583,0.125-1.148,0.196-1.693L324.025,250.096L324.025,250.096z M324.346,247.099
		c0,0.701-0.131,1.246-0.392,1.635c-0.262,0.389-0.688,0.584-1.282,0.584c-0.475,0-0.896-0.162-1.264-0.487
		c-0.368-0.324-0.552-0.746-0.552-1.265c0-0.57,0.213-1.122,0.641-1.654c0.428-0.532,0.902-0.798,1.425-0.798
		c0.45,0,0.801,0.201,1.05,0.604C324.222,246.119,324.346,246.58,324.346,247.099z"/>
	<path d="M330.47,271.975l-3.524,0.389c0-1.531,0.048-3.425,0.143-5.683c0.214-5.061,0.32-8.227,0.32-9.499
		c0-1.193-0.048-2.66-0.143-4.399c-0.214-3.944-0.32-6.396-0.32-7.357l2.92-0.312c1.259,1.012,2.493,2.271,3.704,3.776
		c0.854,1.038,2.587,3.503,5.198,7.396c0.356-2.647,0.534-5.307,0.534-7.98c0-1.635-0.154-3.387-0.463-5.255
		c0.521,0,0.979,0.045,1.371,0.136s0.908,0.253,1.549,0.486c0,1.35-0.023,2.816-0.07,4.399c-0.119,3.945-0.179,6.41-0.179,7.396
		c0,2.102,0.13,4.464,0.393,7.085c0.166,1.557,0.449,3.919,0.854,7.085l-4.345-0.312c-1.354-2.777-2.694-5.567-4.023-8.37
		c-1.662-3.321-3.229-5.969-4.7-7.941c0,2.024,0.06,4.113,0.178,6.267c0.119,2.154,0.25,4.412,0.393,6.773
		C330.398,268.418,330.47,270.391,330.47,271.975z"/>
	<path d="M344.073,254.378c0-3.01,0.569-5.236,1.709-6.676s3.039-2.16,5.698-2.16c2.041,0,3.619,0.96,4.735,2.88
		c0.926,1.609,1.39,3.595,1.39,5.956h-8.761c0.022,1.038,0.047,2.077,0.07,3.114c0.119,2.622,0.808,3.932,2.065,3.932
		c0.688,0,1.322-0.208,1.904-0.623c0.582-0.415,0.873-0.973,0.873-1.674c0-0.441-0.06-0.947-0.179-1.518l4.272-0.117
		c-0.594,2.18-1.316,3.686-2.172,4.516c-0.997,0.986-2.492,1.479-4.486,1.479c-2.186,0-3.94-0.934-5.271-2.803
		C344.69,258.971,344.073,256.869,344.073,254.378z M347.029,251.887l5.377-0.156v-0.506c0-1.115-0.227-1.959-0.678-2.53
		c-0.45-0.57-1.175-0.856-2.172-0.856c-0.926,0-1.585,0.298-1.977,0.895c-0.392,0.597-0.588,1.428-0.588,2.491L347.029,251.887z"/>
	<path d="M368.609,240.948c1.566,0,2.849,0.844,3.846,2.53c0.403,0.675,1.057,2.297,1.959,4.866l-4.237,0.156
		c0.143-0.519,0.213-1.025,0.213-1.518c0-0.675-0.213-1.466-0.641-2.375c-0.499-1.038-0.997-1.557-1.496-1.557
		c-1.163,0-2.029,0.558-2.6,1.674c-0.476,0.909-0.712,2.038-0.712,3.387c0,1.661,0.865,3.127,2.6,4.398
		c1.614,1.09,3.229,2.18,4.843,3.27c1.757,1.505,2.636,3.361,2.636,5.567c0,2.413-0.683,4.444-2.048,6.092
		c-1.364,1.648-3.14,2.472-5.323,2.472c-2.47,0-4.345-1.051-5.626-3.153c-0.333-0.545-0.975-1.894-1.924-4.048l4.38-1.012
		c0,1.168,0.237,2.258,0.713,3.27c0.594,1.246,1.377,1.869,2.351,1.869c1.258,0,2.124-0.467,2.6-1.401
		c0.356-0.701,0.534-1.791,0.534-3.27c0-1.946-0.783-3.478-2.351-4.594c-1.448-0.986-2.896-1.972-4.344-2.958
		c-1.592-1.557-2.388-3.828-2.388-6.812c0-1.869,0.73-3.478,2.19-4.827C365.244,241.623,366.853,240.948,368.609,240.948z"/>
	<path d="M384.455,240.948c1.566,0,2.849,0.844,3.846,2.53c0.403,0.675,1.058,2.297,1.959,4.866l-4.236,0.156
		c0.142-0.519,0.213-1.025,0.213-1.518c0-0.675-0.213-1.466-0.642-2.375c-0.499-1.038-0.997-1.557-1.496-1.557
		c-1.163,0-2.028,0.558-2.6,1.674c-0.475,0.909-0.712,2.038-0.712,3.387c0,1.661,0.866,3.127,2.6,4.398
		c1.614,1.09,3.229,2.18,4.844,3.27c1.757,1.505,2.636,3.361,2.636,5.567c0,2.413-0.684,4.444-2.048,6.092
		c-1.365,1.648-3.141,2.472-5.324,2.472c-2.469,0-4.344-1.051-5.626-3.153c-0.333-0.545-0.975-1.894-1.923-4.048l4.38-1.012
		c0,1.168,0.236,2.258,0.712,3.27c0.594,1.246,1.377,1.869,2.351,1.869c1.259,0,2.124-0.467,2.601-1.401
		c0.355-0.701,0.534-1.791,0.534-3.27c0-1.946-0.783-3.478-2.352-4.594c-1.448-0.986-2.896-1.972-4.344-2.958
		c-1.591-1.557-2.387-3.828-2.387-6.812c0-1.869,0.729-3.478,2.189-4.827C381.09,241.623,382.698,240.948,384.455,240.948z"/>
</g>
<text transform="matrix(0.9148 0 0 1 407.5 282.3086)" display="none" enable-background="new    " font-family="'ARCHRISTY'" font-size="38.9275">Business</text>
<g>
	<ellipse fill="none" stroke="#000000" stroke-miterlimit="10" cx="241.45" cy="271" rx="6.95" ry="7.215"/>
	<line fill="none" stroke="#000000" stroke-miterlimit="10" x1="234.5" y1="271" x2="248.401" y2="271"/>
</g>
<g>
	<ellipse fill="none" stroke="#000000" stroke-miterlimit="10" cx="134.697" cy="285.213" rx="6.397" ry="6.641"/>
	<line fill="none" stroke="#000000" stroke-miterlimit="10" x1="128.3" y1="285.213" x2="141.094" y2="285.213"/>
</g>
<ellipse cx="126.903" cy="189.367" rx="3.082" ry="3.133"/>
<ellipse transform="matrix(-0.3134 -0.9496 0.9496 -0.3134 -175.6132 558.711)" fill="#FFFFFF" cx="114.168" cy="342.84" rx="1.885" ry="4.014"/>
<path d="M112.708,344.417c0,0,2.241-0.249,4-1.582c0,0,0.458,6.249,2.833,11.957l-0.792,0.25
	C118.75,355.042,115.286,343.968,112.708,344.417z"/>
<path d="M114.339,363.652c0,0,4.809,0.701,11.713-4.045C126.052,359.607,121.981,364.157,114.339,363.652z"/>
<g>
	<path d="M56.018,471.124l-4.402,0.312c0.069-0.51,0.112-0.98,0.129-1.414c0.017-0.436,0.026-0.953,0.026-1.559
		c0-1.434-0.129-2.755-0.388-3.963c-0.397-1.887-1.019-2.831-1.865-2.831c-0.38,0-0.734,0.133-1.062,0.396l0.958,9.002h-4.169
		c0.19-1.49,0.35-2.936,0.479-4.331c0.129-1.396,0.194-2.736,0.194-4.021c0-1.17-0.043-2.565-0.129-4.188s-0.168-3.251-0.246-4.885
		c-0.078-1.632-0.117-3.043-0.117-4.23c0.949-0.132,1.977-0.198,3.082-0.198c2.365,0,4.083,0.436,5.153,1.302
		c1.26,1.021,1.89,2.774,1.89,5.267c0,0.963-0.333,1.911-0.997,2.845c-0.665,0.936-1.429,1.496-2.292,1.686
		c0.897,0.98,1.726,2.671,2.486,5.066C55.388,467.416,55.811,469.331,56.018,471.124z M48.612,451.479l-0.156,7.503h0.363
		c0.88,0,1.476-0.096,1.787-0.283c0.397-0.245,0.69-0.802,0.881-1.671c0.138-0.642,0.207-1.255,0.207-1.84
		c0-1.095-0.264-1.943-0.79-2.549C50.376,452.035,49.613,451.648,48.612,451.479z"/>
	<path d="M57.442,459.404c0-2.188,0.415-3.808,1.243-4.854s2.21-1.571,4.144-1.571c1.484,0,2.632,0.698,3.444,2.096
		c0.673,1.171,1.01,2.613,1.01,4.331h-6.371c0.017,0.756,0.035,1.511,0.052,2.265c0.086,1.906,0.587,2.859,1.502,2.859
		c0.5,0,0.962-0.15,1.386-0.453c0.423-0.302,0.634-0.707,0.634-1.217c0-0.321-0.043-0.688-0.129-1.104l3.107-0.085
		c-0.432,1.586-0.958,2.681-1.58,3.284c-0.725,0.718-1.813,1.075-3.263,1.075c-1.588,0-2.866-0.68-3.833-2.038
		C57.891,462.745,57.442,461.217,57.442,459.404z M59.591,457.593l3.911-0.112v-0.368c0-0.812-0.165-1.426-0.492-1.841
		c-0.328-0.414-0.854-0.622-1.58-0.622c-0.673,0-1.152,0.218-1.438,0.65c-0.285,0.436-0.427,1.038-0.427,1.813L59.591,457.593z"/>
	<path d="M73.446,459.461c0.88,0,1.873-0.122,2.978-0.368c0.777-0.169,1.744-0.441,2.9-0.819l-0.673,3.282
		c-2.969,0-5.766,0.313-8.39,0.936l-0.984-3.511c0.846,0.15,1.584,0.27,2.214,0.354C72.121,459.419,72.772,459.461,73.446,459.461z"
		/>
	<path d="M92.868,460.65l-3.47,0.34c-0.121-1.474-0.302-2.586-0.543-3.341c-0.449-1.396-1.148-2.096-2.098-2.096
		c-0.725,0-1.282,0.718-1.67,2.151c-0.389,1.435-0.583,3.426-0.583,5.973c0,1.682,0.112,2.831,0.336,3.454
		c0.415,1.132,1.277,1.698,2.59,1.698c0.397,0,0.699-0.08,0.906-0.24s0.311-0.458,0.311-0.892c0-0.396-0.035-0.854-0.104-1.373
		c-0.069-0.52-0.112-0.873-0.129-1.063l3.833-0.142c0,1.453-0.414,2.661-1.243,3.623c-0.829,0.963-1.908,1.443-3.237,1.443
		c-2.175,0-3.91-0.812-5.205-2.435c-1.226-1.529-1.839-3.511-1.839-5.945c0-2.095,0.708-3.995,2.124-5.704
		c1.416-1.707,3.073-2.562,4.972-2.562c1.485,0,2.728,0.803,3.729,2.406C92.427,457.366,92.868,458.934,92.868,460.65z"/>
	<path d="M94.24,460.339c0-0.85-0.087-2.623-0.259-5.322c-0.086-1.357-0.129-2.425-0.129-3.197h2.59l0.078,1.272l-0.052-0.255
		c0-0.32,0.164-0.57,0.492-0.75c0.328-0.179,0.837-0.269,1.528-0.269c1.588,0,2.598,0.612,3.03,1.84
		c0.225,0.623,0.337,1.991,0.337,4.104l-2.253,0.313c-0.121-1.415-0.207-2.274-0.259-2.576c-0.242-1.434-0.562-2.151-0.958-2.151
		c-0.553,0-0.95,0.236-1.191,0.708c-0.173,0.321-0.29,1.458-0.35,3.411c-0.061,1.953-0.091,3.639-0.091,5.054
		c0,1.132,0.039,2.362,0.117,3.693c0.078,1.33,0.246,3.166,0.505,5.506l-3.522,0.143c0-1.133,0.086-3.529,0.259-7.19
		C94.197,462.84,94.24,461.396,94.24,460.339z"/>
	<path d="M103.847,459.404c0-2.188,0.415-3.808,1.243-4.854c0.828-1.047,2.21-1.571,4.144-1.571c1.484,0,2.632,0.698,3.444,2.096
		c0.673,1.171,1.01,2.613,1.01,4.331h-6.371c0.017,0.756,0.035,1.511,0.052,2.265c0.086,1.906,0.587,2.859,1.502,2.859
		c0.5,0,0.962-0.15,1.386-0.453c0.423-0.302,0.634-0.707,0.634-1.217c0-0.321-0.043-0.688-0.129-1.104l3.107-0.085
		c-0.432,1.586-0.958,2.681-1.58,3.284c-0.725,0.718-1.813,1.075-3.263,1.075c-1.588,0-2.866-0.68-3.833-2.038
		C104.296,462.745,103.847,461.217,103.847,459.404z M105.997,457.593l3.911-0.112v-0.368c0-0.812-0.165-1.426-0.492-1.841
		c-0.328-0.414-0.854-0.622-1.58-0.622c-0.673,0-1.152,0.218-1.438,0.65c-0.285,0.436-0.427,1.038-0.427,1.813L105.997,457.593z"/>
	<path d="M120.006,459.999c0.293,0,0.583,0.038,0.868,0.113s0.565,0.18,0.842,0.312v-1.273c0-0.584-0.035-1.143-0.104-1.67
		c-0.069-0.528-0.165-1.028-0.285-1.5c-0.19-0.566-0.406-1.006-0.647-1.316c-0.241-0.312-0.518-0.467-0.829-0.467
		c-0.173,0-0.509,0.272-1.01,0.819c-0.225,0.266-0.437,0.543-0.635,0.835c-0.198,0.293-0.358,0.563-0.479,0.809l-2.875-0.028
		c0.5-1.416,1.234-2.558,2.201-3.426c1.001-0.868,1.951-1.302,2.849-1.302c1.036,0,1.968,0.34,2.797,1.019
		c0.88,0.68,1.398,1.614,1.554,2.803v-0.027c0.19,1.001,0.311,2.15,0.363,3.453c0.052,0.604,0.09,1.354,0.116,2.251
		c0.026,0.896,0.039,1.9,0.039,3.015v2.746l-0.026,2.293l-3.367,0.34v-0.34c-0.553,0.34-1.157,0.51-1.813,0.51
		c-1.088,0-1.994-0.565-2.719-1.699v0.028c-0.604-0.943-0.906-2-0.906-3.17c0-0.755,0.082-1.435,0.246-2.038s0.384-1.123,0.66-1.558
		c0.363-0.49,0.807-0.867,1.333-1.132C118.707,460.132,119.316,459.999,120.006,459.999z M120.11,462.434
		c-0.466,0-0.812,0.223-1.036,0.665c-0.225,0.444-0.336,0.969-0.336,1.571c0,0.661,0.121,1.255,0.362,1.783
		c0.207,0.585,0.492,0.878,0.854,0.878c0.19,0,0.38-0.028,0.57-0.085s0.44-0.208,0.751-0.453c0.017-0.698,0.035-1.335,0.052-1.911
		c0.017-0.575,0.035-1.212,0.052-1.91c-0.225-0.188-0.432-0.325-0.622-0.411C120.567,462.476,120.352,462.434,120.11,462.434z"/>
	<path d="M125.936,451.875h2.098l-0.104-3.454h2.642l-0.207,3.454h3.625v3.227l-3.833-0.197l0.233,8.747
		c0.034,0.718,0.078,1.426,0.129,2.124c0.086,0.604,0.224,0.904,0.414,0.904c0.363,0,0.656-0.66,0.881-1.98
		c0.172-1.473,0.276-2.34,0.311-2.604l3.056,1.048c-0.483,2.038-1.148,3.549-1.994,4.529c-0.708,0.813-1.519,1.217-2.434,1.217
		c-0.708,0-1.312-0.16-1.813-0.48c-0.604-0.377-0.907-0.935-0.907-1.67v-12.003l-2.227,0.085L125.936,451.875z"/>
	<path d="M136.398,459.404c0-2.188,0.415-3.808,1.243-4.854c0.828-1.047,2.21-1.571,4.144-1.571c1.484,0,2.632,0.698,3.444,2.096
		c0.673,1.171,1.01,2.613,1.01,4.331h-6.371c0.017,0.756,0.035,1.511,0.052,2.265c0.086,1.906,0.587,2.859,1.502,2.859
		c0.5,0,0.962-0.15,1.386-0.453c0.423-0.302,0.634-0.707,0.634-1.217c0-0.321-0.043-0.688-0.129-1.104l3.107-0.085
		c-0.432,1.586-0.958,2.681-1.58,3.284c-0.725,0.718-1.813,1.075-3.263,1.075c-1.588,0-2.866-0.68-3.833-2.038
		C136.847,462.745,136.398,461.217,136.398,459.404z M138.548,457.593l3.911-0.112v-0.368c0-0.812-0.165-1.426-0.492-1.841
		c-0.328-0.414-0.854-0.622-1.58-0.622c-0.673,0-1.152,0.218-1.438,0.65c-0.285,0.436-0.427,1.038-0.427,1.813L138.548,457.593z"/>
</g>
<g>
	<path d="M378.22,47.736c0.201,0,0.399,0.026,0.596,0.078c0.195,0.052,0.389,0.124,0.577,0.214v-0.875
		c0-0.401-0.022-0.784-0.07-1.146c-0.047-0.363-0.112-0.706-0.195-1.03c-0.131-0.389-0.278-0.69-0.444-0.904
		c-0.166-0.214-0.354-0.321-0.568-0.321c-0.118,0-0.351,0.188-0.692,0.563c-0.154,0.182-0.3,0.373-0.436,0.573
		c-0.138,0.201-0.246,0.386-0.329,0.554l-1.975-0.02c0.345-0.972,0.849-1.755,1.512-2.352c0.688-0.596,1.34-0.894,1.956-0.894
		c0.711,0,1.351,0.233,1.92,0.699c0.604,0.467,0.96,1.108,1.065,1.924V44.78c0.13,0.687,0.214,1.477,0.249,2.371
		c0.035,0.415,0.063,0.93,0.08,1.545c0.018,0.615,0.026,1.305,0.026,2.069v1.885l-0.019,1.574l-2.312,0.233v-0.233
		c-0.379,0.233-0.794,0.35-1.244,0.35c-0.746,0-1.368-0.389-1.866-1.166v0.02c-0.415-0.647-0.622-1.373-0.622-2.177
		c0-0.518,0.057-0.984,0.169-1.399s0.265-0.771,0.453-1.069c0.249-0.337,0.554-0.596,0.915-0.777
		C377.327,47.827,377.745,47.736,378.22,47.736z M378.29,49.408c-0.319,0-0.557,0.152-0.711,0.457
		c-0.154,0.305-0.23,0.664-0.23,1.079c0,0.454,0.082,0.861,0.249,1.224c0.143,0.402,0.337,0.603,0.586,0.603
		c0.132,0,0.262-0.02,0.393-0.059c0.13-0.039,0.302-0.142,0.516-0.311c0.012-0.479,0.023-0.916,0.035-1.312
		c0.012-0.395,0.023-0.832,0.035-1.312c-0.153-0.129-0.296-0.224-0.426-0.282C378.604,49.437,378.456,49.408,378.29,49.408z"/>
	<path d="M391.641,40.624c0.782,0,1.422,0.421,1.92,1.263c0.201,0.337,0.527,1.146,0.979,2.429l-2.115,0.078
		c0.071-0.259,0.106-0.512,0.106-0.758c0-0.336-0.106-0.73-0.32-1.185c-0.248-0.518-0.497-0.777-0.746-0.777
		c-0.581,0-1.014,0.279-1.298,0.835c-0.237,0.454-0.355,1.017-0.355,1.691c0,0.829,0.434,1.561,1.299,2.196
		c0.806,0.544,1.61,1.088,2.418,1.632c0.876,0.751,1.314,1.678,1.314,2.779c0,1.205-0.341,2.219-1.021,3.041
		c-0.683,0.823-1.567,1.234-2.658,1.234c-1.232,0-2.168-0.525-2.81-1.574c-0.165-0.272-0.485-0.945-0.96-2.021l2.188-0.505
		c0,0.583,0.118,1.127,0.354,1.632c0.298,0.622,0.688,0.933,1.175,0.933c0.628,0,1.061-0.233,1.298-0.7
		c0.178-0.35,0.267-0.894,0.267-1.632c0-0.972-0.392-1.736-1.174-2.293c-0.723-0.492-1.445-0.984-2.169-1.477
		c-0.794-0.777-1.19-1.911-1.19-3.401c0-0.933,0.364-1.736,1.094-2.41C389.961,40.961,390.764,40.624,391.641,40.624z"/>
	<path d="M395.445,42.159h1.438l-0.069-2.371h1.813l-0.142,2.371h2.487v2.215l-2.631-0.136l0.16,6.005
		c0.023,0.493,0.054,0.978,0.089,1.458c0.06,0.415,0.153,0.622,0.284,0.622c0.249,0,0.45-0.453,0.604-1.36
		c0.118-1.01,0.189-1.606,0.215-1.788l2.098,0.719c-0.332,1.399-0.789,2.436-1.369,3.109c-0.486,0.557-1.043,0.836-1.671,0.836
		c-0.486,0-0.901-0.11-1.245-0.331c-0.414-0.259-0.622-0.641-0.622-1.146v-8.24l-1.528,0.059L395.445,42.159z"/>
	<path d="M407.267,51.429c-1.375,0-2.523-0.467-3.447-1.399c-0.926-0.933-1.388-2.145-1.388-3.634c0-1.231,0.485-2.208,1.458-2.935
		c0.854-0.634,1.86-0.952,3.021-0.952c1.28,0,2.3,0.454,3.058,1.36c0.76,0.907,1.139,2.073,1.139,3.498
		c0,1.244-0.358,2.231-1.075,2.963S408.393,51.429,407.267,51.429z M405.934,43.48c-0.51,0-0.902,0.221-1.182,0.661
		c-0.279,0.441-0.418,0.952-0.418,1.535c0,0.505,0.127,1.144,0.382,1.914c0.255,0.771,0.542,1.28,0.862,1.526l0.836,0.505
		c0.07,0.039,0.229,0.136,0.479,0.292c0.215,0.117,0.386,0.175,0.517,0.175c0.392,0,0.794-0.188,1.209-0.563
		s0.622-0.771,0.622-1.185l-0.019-0.214c-0.095-1.166-0.396-2.183-0.906-3.051C407.699,44.012,406.905,43.48,405.934,43.48z"/>
	<path d="M411.871,47.969c0-0.583-0.061-1.8-0.178-3.653c-0.061-0.933-0.09-1.665-0.09-2.196h1.777l0.054,0.875L413.4,42.82
		c0-0.22,0.111-0.392,0.337-0.515c0.226-0.123,0.575-0.185,1.049-0.185c1.091,0,1.784,0.421,2.08,1.263
		c0.153,0.428,0.23,1.367,0.23,2.818l-1.547,0.214c-0.083-0.972-0.142-1.561-0.178-1.769c-0.166-0.984-0.385-1.477-0.657-1.477
		c-0.38,0-0.652,0.162-0.818,0.486c-0.117,0.221-0.197,1.001-0.238,2.342c-0.042,1.341-0.063,2.497-0.063,3.469
		c0,0.777,0.026,1.623,0.08,2.536c0.053,0.913,0.169,2.173,0.347,3.779l-2.418,0.097c0-0.777,0.061-2.422,0.179-4.936
		C411.842,49.686,411.871,48.695,411.871,47.969z"/>
	<path d="M422.52,57.044c0.45,0,0.759-0.33,0.925-0.991c0.106-0.415,0.159-0.946,0.159-1.594c0-0.881-0.082-1.794-0.248-2.74
		c-0.237,0.194-0.438,0.343-0.604,0.447c-0.249,0.155-0.479,0.233-0.693,0.233c-0.593,0-1.173-0.602-1.741-1.807
		c-0.45-0.958-0.859-2.196-1.228-3.711c-0.261-1.088-0.456-2.092-0.586-3.012l2.702-0.194v0.991c0,1.827,0.127,3.271,0.382,4.333
		c0.255,1.063,0.625,1.593,1.111,1.593c0.249,0,0.468-0.084,0.657-0.252l-0.517-5.053l2.116,0.214c0,0.816-0.033,2.17-0.099,4.062
		c-0.064,1.892-0.099,3.122-0.099,3.692c0,1.451-0.077,2.584-0.229,3.4c-0.297,1.594-0.865,2.39-1.707,2.39
		c-0.641,0-1.429-0.337-2.364-1.01c-0.688-0.493-1.369-1.095-2.044-1.807l2.133-0.525c0.332,0.389,0.622,0.687,0.871,0.894
		C421.796,56.896,422.164,57.044,422.52,57.044z"/>
	<path d="M432.546,45.19l0.302,6.549h-1.865c0-0.544-0.02-1.367-0.055-2.468s-0.054-1.93-0.054-2.487
		c0-0.207,0.016-0.457,0.045-0.748s0.063-0.573,0.098-0.846H432.546z M432.705,43.694c0,0.35-0.064,0.622-0.195,0.816
		c-0.131,0.194-0.344,0.292-0.64,0.292c-0.237,0-0.447-0.081-0.631-0.243c-0.186-0.162-0.276-0.372-0.276-0.632
		c0-0.285,0.107-0.56,0.32-0.826c0.214-0.265,0.45-0.398,0.711-0.398c0.226,0,0.399,0.101,0.523,0.301
		C432.644,43.206,432.705,43.435,432.705,43.694z"/>
	<path d="M438.003,40.624c0.782,0,1.422,0.421,1.92,1.263c0.201,0.337,0.527,1.146,0.979,2.429l-2.115,0.078
		c0.071-0.259,0.105-0.512,0.105-0.758c0-0.336-0.105-0.73-0.319-1.185c-0.248-0.518-0.497-0.777-0.746-0.777
		c-0.581,0-1.015,0.279-1.298,0.835c-0.237,0.454-0.355,1.017-0.355,1.691c0,0.829,0.434,1.561,1.298,2.196
		c0.807,0.544,1.611,1.088,2.418,1.632c0.876,0.751,1.315,1.678,1.315,2.779c0,1.205-0.341,2.219-1.022,3.041
		c-0.682,0.823-1.566,1.234-2.657,1.234c-1.232,0-2.168-0.525-2.81-1.574c-0.166-0.272-0.486-0.945-0.96-2.021l2.188-0.505
		c0,0.583,0.117,1.127,0.354,1.632c0.297,0.622,0.688,0.933,1.174,0.933c0.628,0,1.062-0.233,1.299-0.7
		c0.178-0.35,0.267-0.894,0.267-1.632c0-0.972-0.392-1.736-1.174-2.293c-0.724-0.492-1.445-0.984-2.169-1.477
		c-0.794-0.777-1.19-1.911-1.19-3.401c0-0.933,0.364-1.736,1.093-2.41C436.323,40.961,437.126,40.624,438.003,40.624z"/>
	<path d="M450.003,47.736c0.201,0,0.399,0.026,0.595,0.078c0.196,0.052,0.39,0.124,0.578,0.214v-0.875
		c0-0.401-0.022-0.784-0.07-1.146c-0.048-0.363-0.112-0.706-0.195-1.03c-0.131-0.389-0.278-0.69-0.444-0.904
		c-0.166-0.214-0.354-0.321-0.569-0.321c-0.117,0-0.35,0.188-0.691,0.563c-0.154,0.182-0.3,0.373-0.437,0.573
		c-0.137,0.201-0.245,0.386-0.328,0.554l-1.975-0.02c0.344-0.972,0.849-1.755,1.511-2.352c0.688-0.596,1.341-0.894,1.956-0.894
		c0.711,0,1.352,0.233,1.92,0.699c0.604,0.467,0.96,1.108,1.066,1.924V44.78c0.13,0.687,0.214,1.477,0.249,2.371
		c0.035,0.415,0.063,0.93,0.08,1.545c0.017,0.615,0.026,1.305,0.026,2.069v1.885l-0.019,1.574l-2.312,0.233v-0.233
		c-0.38,0.233-0.794,0.35-1.244,0.35c-0.746,0-1.368-0.389-1.866-1.166v0.02c-0.415-0.647-0.622-1.373-0.622-2.177
		c0-0.518,0.056-0.984,0.169-1.399c0.112-0.415,0.264-0.771,0.453-1.069c0.249-0.337,0.554-0.596,0.915-0.777
		C449.11,47.827,449.528,47.736,450.003,47.736z M450.073,49.408c-0.319,0-0.558,0.152-0.711,0.457
		c-0.154,0.305-0.23,0.664-0.23,1.079c0,0.454,0.082,0.861,0.249,1.224c0.143,0.402,0.337,0.603,0.586,0.603
		c0.131,0,0.261-0.02,0.393-0.059c0.13-0.039,0.302-0.142,0.516-0.311c0.012-0.479,0.023-0.916,0.035-1.312
		c0.012-0.395,0.022-0.832,0.035-1.312c-0.153-0.129-0.296-0.224-0.427-0.282C450.388,49.437,450.239,49.408,450.073,49.408z"/>
	<path d="M459.478,41.731l4.319,0.311l1.493,5.636c0.344,0,0.699-0.836,1.067-2.507c0.318-1.464,0.479-2.533,0.479-3.207
		l3.786,0.058c0.095,0.324,0.16,0.761,0.196,1.312c0.035,0.551,0.053,1.188,0.053,1.914c0,0.648-0.018,1.542-0.053,2.682
		c-0.036,1.14-0.055,1.872-0.055,2.196c0,2.073,0.061,3.667,0.179,4.78c0.118,1.114,0.303,2.131,0.551,3.051l-3.306-0.194
		c0.318-2.345,0.518-3.932,0.595-4.761s0.116-1.658,0.116-2.487c0-1.671-0.103-3.375-0.304-5.111l-1.741,6.491l-3.059-0.039
		l-2.453-7.792v0.738c0,0.804,0.035,1.665,0.106,2.585c0.07,0.92,0.146,1.878,0.223,2.876c0.077,0.998,0.115,1.814,0.115,2.448
		c0,0.946-0.053,1.898-0.16,2.857h-2.471c0.095-1.295,0.169-2.808,0.223-4.538c0.053-1.729,0.082-3.323,0.089-4.781
		C459.475,44.792,459.478,43.286,459.478,41.731z"/>
	<path d="M472.188,47.6c0-0.466-0.018-0.991-0.054-1.574c-0.035-0.583-0.077-1.095-0.124-1.535l3.022,0.796
		c-0.202,1.179-0.351,2.235-0.444,3.167c-0.096,0.933-0.143,1.898-0.143,2.896v0.35c0,0.635,0.054,1.107,0.16,1.418
		c0.166,0.493,0.474,0.738,0.924,0.738c0.96,0,1.63-0.731,2.009-2.196c0.226-0.881,0.338-2.027,0.338-3.439
		c0-1.062-0.029-2.08-0.089-3.051c-0.061-0.972-0.148-1.963-0.267-2.974l2.896-0.602c-0.225,1.438-0.394,2.776-0.506,4.013
		c-0.113,1.237-0.169,2.51-0.169,3.818c0,2.28-0.351,3.88-1.049,4.8c-0.594,0.777-1.458,1.166-2.597,1.166
		c-1.065,0-1.997-0.278-2.791-0.835c-0.913-0.635-1.368-1.502-1.368-2.604c0-0.479,0.042-1.205,0.125-2.176
		C472.146,48.805,472.188,48.08,472.188,47.6z"/>
	<path d="M481.379,42.567l1.813,0.194l-0.124,9.27h4.408l-0.284,2.487l-5.706-0.622L481.379,42.567z"/>
	<path d="M488.418,42.159h1.439l-0.07-2.371h1.813l-0.142,2.371h2.488v2.215l-2.631-0.136l0.159,6.005
		c0.023,0.493,0.055,0.978,0.09,1.458c0.059,0.415,0.152,0.622,0.283,0.622c0.249,0,0.45-0.453,0.604-1.36
		c0.118-1.01,0.188-1.606,0.214-1.788l2.098,0.719c-0.332,1.399-0.789,2.436-1.369,3.109c-0.485,0.557-1.043,0.836-1.671,0.836
		c-0.485,0-0.9-0.11-1.245-0.331c-0.413-0.259-0.621-0.641-0.621-1.146v-8.24l-1.528,0.059L488.418,42.159z"/>
	<path d="M497.2,45.19l0.302,6.549h-1.866c0-0.544-0.019-1.367-0.054-2.468s-0.054-1.93-0.054-2.487
		c0-0.207,0.016-0.457,0.045-0.748s0.063-0.573,0.098-0.846H497.2z M497.359,43.694c0,0.35-0.064,0.622-0.195,0.816
		c-0.131,0.194-0.344,0.292-0.64,0.292c-0.237,0-0.447-0.081-0.632-0.243s-0.275-0.372-0.275-0.632c0-0.285,0.106-0.56,0.319-0.826
		c0.215-0.265,0.45-0.398,0.712-0.398c0.226,0,0.399,0.101,0.523,0.301C497.298,43.206,497.359,43.435,497.359,43.694z"/>
	<path d="M501.199,58.463l-2.81,0.252c0.154-1.063,0.271-2.008,0.348-2.837s0.114-1.703,0.114-2.623
		c0-0.816-0.069-2.617-0.213-5.402c-0.07-1.386-0.105-2.475-0.105-3.265c0.45-0.376,0.912-0.667,1.387-0.875
		c0.557-0.246,1.084-0.369,1.582-0.369c1.03,0,1.801,0.524,2.311,1.574c0.403,0.829,0.604,1.859,0.604,3.09
		c0,1.218-0.397,2.176-1.191,2.876c-0.65,0.583-1.582,0.985-2.791,1.205L501.199,58.463z M500.523,50.34
		c0.651-0.117,1.146-0.366,1.483-0.748c0.338-0.382,0.507-0.93,0.507-1.642c0-0.583-0.064-1.088-0.194-1.516
		c-0.201-0.634-0.504-0.952-0.906-0.952c-0.31,0-0.611,0.071-0.907,0.214L500.523,50.34z"/>
	<path d="M505.661,42.567l1.813,0.194l-0.124,9.27h4.409l-0.285,2.487l-5.706-0.622L505.661,42.567z"/>
	<path d="M512.646,47.328c0-1.502,0.285-2.614,0.854-3.333c0.569-0.719,1.517-1.079,2.845-1.079c1.02,0,1.808,0.479,2.364,1.438
		c0.462,0.803,0.693,1.794,0.693,2.973h-4.373c0.011,0.519,0.022,1.037,0.034,1.555c0.061,1.309,0.402,1.963,1.031,1.963
		c0.344,0,0.66-0.104,0.951-0.311c0.29-0.207,0.436-0.486,0.436-0.835c0-0.22-0.029-0.473-0.089-0.758l2.134-0.058
		c-0.297,1.088-0.657,1.84-1.084,2.254c-0.498,0.492-1.245,0.738-2.24,0.738c-1.091,0-1.968-0.466-2.631-1.399
		C512.956,49.621,512.646,48.572,512.646,47.328z M514.123,46.084l2.685-0.078v-0.253c0-0.557-0.112-0.978-0.338-1.263
		c-0.226-0.285-0.587-0.428-1.084-0.428c-0.463,0-0.791,0.149-0.986,0.447c-0.195,0.298-0.294,0.713-0.294,1.244L514.123,46.084z"/>
	<path d="M375.269,65.479h1.439l-0.07-2.371h1.813l-0.143,2.371h2.488v2.215l-2.631-0.136l0.16,6.005
		c0.022,0.493,0.054,0.978,0.089,1.458c0.059,0.415,0.153,0.622,0.284,0.622c0.249,0,0.45-0.453,0.604-1.36
		c0.118-1.01,0.189-1.606,0.214-1.788l2.099,0.719c-0.332,1.399-0.789,2.436-1.369,3.109c-0.486,0.557-1.043,0.836-1.671,0.836
		c-0.486,0-0.901-0.11-1.245-0.331c-0.414-0.259-0.622-0.641-0.622-1.146v-8.24L375.18,67.5L375.269,65.479z"/>
	<path d="M387.197,78.576l0.105-5.674h-2.418l0.071,5.927l-2.702,0.117c0-1.399,0.023-2.798,0.071-4.197
		c0.047-1.399,0.101-2.886,0.16-4.46c0.059-1.574,0.089-2.892,0.089-3.955l2.025,0.117l-0.462,3.128l3.466,0.117l-0.034-3.614
		l3.164-0.02c-0.118,1.037-0.214,2.199-0.284,3.488c-0.071,1.289-0.115,2.455-0.134,3.498s-0.026,2.381-0.026,4.013v1.574
		L387.197,78.576z"/>
	<path d="M393.544,68.51l0.302,6.549h-1.865c0-0.544-0.02-1.367-0.055-2.468c-0.035-1.101-0.054-1.93-0.054-2.487
		c0-0.207,0.016-0.457,0.045-0.748s0.063-0.573,0.098-0.846H393.544z M393.703,67.014c0,0.35-0.064,0.622-0.195,0.816
		c-0.131,0.194-0.344,0.292-0.64,0.292c-0.237,0-0.447-0.081-0.631-0.243c-0.186-0.162-0.276-0.372-0.276-0.632
		c0-0.285,0.107-0.56,0.32-0.826c0.214-0.265,0.45-0.398,0.711-0.398c0.226,0,0.399,0.101,0.523,0.301
		C393.642,66.525,393.703,66.754,393.703,67.014z"/>
	<path d="M396.761,79.431l-1.76,0.194c0-0.764,0.023-1.71,0.071-2.837c0.105-2.526,0.16-4.106,0.16-4.741
		c0-0.596-0.024-1.328-0.071-2.196c-0.106-1.969-0.16-3.193-0.16-3.672l1.458-0.156c0.628,0.505,1.244,1.134,1.849,1.885
		c0.428,0.518,1.292,1.749,2.597,3.692c0.178-1.321,0.267-2.649,0.267-3.983c0-0.816-0.077-1.691-0.23-2.624
		c0.261,0,0.488,0.022,0.685,0.068s0.453,0.126,0.773,0.243c0,0.674-0.013,1.406-0.036,2.196c-0.06,1.969-0.089,3.2-0.089,3.692
		c0,1.05,0.064,2.229,0.195,3.537c0.082,0.777,0.226,1.956,0.428,3.537l-2.17-0.155c-0.676-1.386-1.346-2.779-2.009-4.178
		c-0.83-1.658-1.611-2.979-2.347-3.964c0,1.011,0.029,2.054,0.089,3.129c0.059,1.075,0.124,2.203,0.195,3.381
		C396.726,77.657,396.761,78.641,396.761,79.431z"/>
	<path d="M410.199,75.35c0,0.298,0.029,0.751,0.089,1.36c0.106,1.102,0.16,1.846,0.16,2.235c0,1.283-0.163,2.138-0.488,2.565
		c-0.326,0.428-0.804,0.642-1.432,0.642c-1.279,0-2.399-0.408-3.359-1.225c-1.031-0.868-1.547-1.962-1.547-3.284
		c0-0.376,0.035-0.797,0.105-1.263c0.071-0.467,0.154-0.887,0.249-1.263c0.249,0.168,0.521,0.288,0.818,0.359
		c0.296,0.071,0.615,0.107,0.96,0.107c0.296,0,0.563-0.026,0.8-0.078c-0.023,0.091-0.392,0.765-1.103,2.021
		c-0.261,0.466-0.392,0.862-0.392,1.185c0,0.454,0.23,0.855,0.693,1.205c0.414,0.311,0.841,0.466,1.279,0.466
		c0.604,0,1.043-0.279,1.314-0.835c0.201-0.415,0.304-0.991,0.304-1.729c0-0.078-0.014-0.696-0.036-1.856
		c-0.023-1.159-0.035-1.992-0.035-2.497c-0.083,0.259-0.272,0.447-0.569,0.563c-0.201,0.078-0.456,0.117-0.764,0.117
		c-1.067,0-1.892-0.373-2.472-1.118c-0.58-0.745-0.871-1.707-0.871-2.886c0-1.023,0.188-1.846,0.568-2.468
		c0.45-0.726,1.12-1.088,2.01-1.088c0.698,0,1.221,0.065,1.563,0.194c0.344,0.13,0.729,0.428,1.155,0.894l0.035-0.661l2.205,0.486
		c-0.476,2.164-0.754,3.466-0.837,3.906C410.336,72.896,410.199,74.21,410.199,75.35z M408.777,68.607
		c-0.284-0.168-0.434-0.252-0.444-0.252c-0.284-0.129-0.558-0.194-0.817-0.194c-0.319,0-0.657,0.143-1.014,0.428
		c-0.354,0.285-0.551,0.596-0.587,0.933l-0.018,0.466c0,0.854,0.06,1.438,0.178,1.749c0.201,0.518,0.628,0.777,1.28,0.777
		c0.178,0,0.36-0.029,0.551-0.087c0.188-0.059,0.344-0.139,0.462-0.243L408.777,68.607z"/>
	<path d="M416.636,63.943c0.782,0,1.422,0.421,1.92,1.263c0.201,0.337,0.527,1.146,0.979,2.429l-2.115,0.078
		c0.071-0.259,0.106-0.512,0.106-0.758c0-0.336-0.106-0.731-0.32-1.185c-0.248-0.518-0.497-0.777-0.746-0.777
		c-0.581,0-1.014,0.279-1.298,0.835c-0.237,0.454-0.355,1.017-0.355,1.691c0,0.829,0.434,1.561,1.298,2.196
		c0.807,0.544,1.611,1.088,2.418,1.632c0.877,0.751,1.315,1.678,1.315,2.779c0,1.205-0.341,2.219-1.021,3.041
		c-0.683,0.823-1.567,1.234-2.658,1.234c-1.232,0-2.168-0.525-2.81-1.574c-0.166-0.272-0.485-0.945-0.96-2.021l2.188-0.505
		c0,0.583,0.118,1.127,0.354,1.632c0.297,0.622,0.688,0.933,1.175,0.933c0.628,0,1.061-0.233,1.298-0.7
		c0.178-0.35,0.267-0.894,0.267-1.632c0-0.972-0.392-1.736-1.174-2.293c-0.723-0.492-1.445-0.984-2.169-1.477
		c-0.794-0.777-1.19-1.911-1.19-3.401c0-0.933,0.364-1.736,1.093-2.41C414.956,64.28,415.759,63.943,416.636,63.943z"/>
	<path d="M423.835,77.663c-0.261,0.622-0.507,1.267-0.738,1.934c-0.229,0.667-0.412,1.318-0.542,1.953l-1.227-0.292
		c0.296-0.687,0.444-1.393,0.444-2.118c0-0.466-0.054-0.926-0.16-1.38L423.835,77.663z"/>
	<path d="M433.523,79.042c-0.131-1.555-0.361-3.103-0.693-4.645c-0.225-1.036-0.599-2.487-1.12-4.353
		c-0.426-1.489-0.847-2.979-1.262-4.469l3.129-0.136c0,1.49,0.053,2.86,0.16,4.11c0.105,1.25,0.302,2.458,0.586,3.624l1.174-9.581
		l3.164,0.078l0.871,9.308c0.271-1.503,0.456-2.979,0.551-4.431c0.095-1.451,0.143-3.103,0.143-4.956l3.219-0.369
		c-0.913,2.954-1.588,5.616-2.026,7.987c-0.521,2.825-0.782,5.564-0.782,8.22l-3.129-0.369l-0.568-7.171l-0.497,7.171
		L433.523,79.042z"/>
	<path d="M448.972,78.576l0.106-5.674h-2.418l0.071,5.927l-2.702,0.117c0-1.399,0.022-2.798,0.07-4.197s0.102-2.886,0.16-4.46
		c0.06-1.574,0.089-2.892,0.089-3.955l2.026,0.117l-0.462,3.128l3.466,0.117l-0.035-3.614l3.164-0.02
		c-0.118,1.037-0.213,2.199-0.284,3.488c-0.07,1.289-0.114,2.455-0.134,3.498c-0.018,1.043-0.025,2.381-0.025,4.013v1.574
		L448.972,78.576z"/>
	<path d="M453.718,70.647c0-1.502,0.285-2.614,0.854-3.333c0.568-0.719,1.517-1.079,2.845-1.079c1.019,0,1.807,0.479,2.364,1.438
		c0.462,0.803,0.692,1.794,0.692,2.973h-4.373c0.012,0.519,0.023,1.037,0.035,1.555c0.061,1.309,0.402,1.963,1.031,1.963
		c0.344,0,0.66-0.104,0.951-0.311c0.29-0.207,0.436-0.486,0.436-0.835c0-0.22-0.029-0.473-0.089-0.758l2.133-0.058
		c-0.296,1.088-0.656,1.84-1.084,2.254c-0.498,0.492-1.245,0.738-2.239,0.738c-1.092,0-1.969-0.466-2.632-1.399
		C454.026,72.94,453.718,71.891,453.718,70.647z M455.193,69.404l2.685-0.078v-0.253c0-0.557-0.113-0.979-0.338-1.263
		c-0.226-0.285-0.587-0.428-1.084-0.428c-0.463,0-0.791,0.149-0.987,0.447c-0.194,0.298-0.293,0.713-0.293,1.244L455.193,69.404z"/>
	<path d="M463.726,79.431l-1.76,0.194c0-0.764,0.023-1.71,0.071-2.837c0.105-2.526,0.16-4.106,0.16-4.741
		c0-0.596-0.024-1.328-0.071-2.196c-0.106-1.969-0.16-3.193-0.16-3.672l1.458-0.156c0.628,0.505,1.244,1.134,1.85,1.885
		c0.427,0.518,1.292,1.749,2.596,3.692c0.178-1.321,0.267-2.649,0.267-3.983c0-0.816-0.077-1.691-0.23-2.624
		c0.261,0,0.489,0.022,0.685,0.068c0.196,0.046,0.453,0.126,0.773,0.243c0,0.674-0.013,1.406-0.036,2.196
		c-0.06,1.969-0.089,3.2-0.089,3.692c0,1.05,0.064,2.229,0.195,3.537c0.082,0.777,0.226,1.956,0.428,3.537l-2.169-0.155
		c-0.677-1.386-1.347-2.779-2.01-4.178c-0.829-1.658-1.611-2.979-2.347-3.964c0,1.011,0.029,2.054,0.089,3.129
		c0.06,1.075,0.124,2.203,0.195,3.381S463.726,78.641,463.726,79.431z"/>
	<path d="M484.116,71.502l-2.382,0.233c-0.083-1.011-0.208-1.775-0.374-2.293c-0.309-0.959-0.788-1.438-1.439-1.438
		c-0.498,0-0.88,0.492-1.146,1.477c-0.268,0.985-0.4,2.352-0.4,4.101c0,1.153,0.077,1.943,0.231,2.371
		c0.283,0.777,0.877,1.166,1.776,1.166c0.272,0,0.48-0.055,0.622-0.165c0.144-0.11,0.214-0.314,0.214-0.612
		c0-0.272-0.023-0.586-0.07-0.942c-0.049-0.356-0.077-0.599-0.09-0.729l2.632-0.097c0,0.998-0.284,1.827-0.854,2.488
		c-0.568,0.661-1.31,0.991-2.222,0.991c-1.493,0-2.686-0.557-3.573-1.671c-0.842-1.049-1.263-2.41-1.263-4.081
		c0-1.438,0.485-2.743,1.458-3.916c0.972-1.173,2.108-1.759,3.413-1.759c1.02,0,1.873,0.551,2.561,1.652
		C483.814,69.249,484.116,70.324,484.116,71.502z"/>
	<path d="M489.627,74.748c-1.375,0-2.523-0.467-3.448-1.399c-0.925-0.933-1.387-2.144-1.387-3.634c0-1.231,0.485-2.208,1.458-2.935
		c0.854-0.634,1.86-0.952,3.021-0.952c1.279,0,2.3,0.454,3.058,1.36c0.759,0.907,1.138,2.073,1.138,3.498
		c0,1.244-0.357,2.231-1.075,2.963C491.675,74.381,490.753,74.748,489.627,74.748z M488.294,66.8c-0.51,0-0.903,0.221-1.182,0.661
		c-0.279,0.441-0.418,0.952-0.418,1.535c0,0.505,0.127,1.144,0.382,1.914c0.255,0.771,0.542,1.28,0.861,1.526l0.837,0.505
		c0.069,0.039,0.229,0.136,0.479,0.292c0.214,0.117,0.385,0.175,0.516,0.175c0.393,0,0.794-0.188,1.209-0.563
		s0.622-0.771,0.622-1.185l-0.018-0.214c-0.095-1.166-0.397-2.183-0.907-3.051C490.06,67.331,489.266,66.8,488.294,66.8z"/>
	<path d="M494.374,65.051l4.319,0.311l1.492,5.636c0.345,0,0.699-0.836,1.067-2.507c0.319-1.464,0.479-2.533,0.479-3.207
		l3.785,0.058c0.096,0.324,0.16,0.761,0.196,1.312c0.035,0.551,0.053,1.188,0.053,1.914c0,0.648-0.018,1.542-0.053,2.682
		c-0.036,1.14-0.054,1.872-0.054,2.196c0,2.073,0.06,3.667,0.178,4.78c0.118,1.114,0.303,2.131,0.551,3.051l-3.306-0.194
		c0.319-2.345,0.518-3.932,0.595-4.761c0.077-0.829,0.116-1.658,0.116-2.487c0-1.671-0.102-3.375-0.303-5.111l-1.742,6.491
		l-3.058-0.039l-2.453-7.792v0.738c0,0.804,0.035,1.665,0.105,2.585c0.071,0.92,0.146,1.878,0.224,2.876
		c0.076,0.998,0.114,1.814,0.114,2.448c0,0.946-0.053,1.897-0.16,2.857h-2.471c0.095-1.295,0.169-2.808,0.224-4.538
		c0.053-1.729,0.081-3.323,0.089-4.781S494.374,66.605,494.374,65.051z"/>
	<path d="M507.013,70.647c0-1.502,0.285-2.614,0.854-3.333c0.568-0.719,1.517-1.079,2.845-1.079c1.02,0,1.807,0.479,2.364,1.438
		c0.462,0.803,0.692,1.794,0.692,2.973h-4.372c0.011,0.519,0.022,1.037,0.034,1.555c0.061,1.309,0.402,1.963,1.031,1.963
		c0.344,0,0.66-0.104,0.951-0.311c0.29-0.207,0.436-0.486,0.436-0.835c0-0.22-0.029-0.473-0.089-0.758l2.133-0.058
		c-0.296,1.088-0.656,1.84-1.084,2.254c-0.498,0.492-1.244,0.738-2.239,0.738c-1.091,0-1.969-0.466-2.631-1.399
		C507.321,72.94,507.013,71.891,507.013,70.647z M508.488,69.404l2.685-0.078v-0.253c0-0.557-0.113-0.979-0.338-1.263
		c-0.226-0.285-0.587-0.428-1.084-0.428c-0.463,0-0.791,0.149-0.987,0.447c-0.194,0.298-0.293,0.713-0.293,1.244L508.488,69.404z"/>
	<path d="M375.269,88.798h1.439l-0.07-2.371h1.813l-0.143,2.371h2.488v2.215l-2.631-0.136l0.16,6.005
		c0.022,0.493,0.054,0.978,0.089,1.458c0.059,0.415,0.153,0.622,0.284,0.622c0.249,0,0.45-0.453,0.604-1.36
		c0.118-1.01,0.189-1.606,0.214-1.788l2.099,0.719c-0.332,1.399-0.789,2.436-1.369,3.109c-0.486,0.557-1.043,0.836-1.671,0.836
		c-0.486,0-0.901-0.11-1.245-0.331c-0.414-0.259-0.622-0.641-0.622-1.146v-8.24l-1.528,0.059L375.269,88.798z"/>
	<path d="M387.09,98.067c-1.375,0-2.523-0.467-3.448-1.399c-0.925-0.933-1.387-2.144-1.387-3.634c0-1.231,0.485-2.208,1.458-2.935
		c0.854-0.634,1.86-0.952,3.021-0.952c1.279,0,2.3,0.454,3.058,1.36c0.759,0.907,1.138,2.073,1.138,3.498
		c0,1.244-0.357,2.231-1.074,2.963C389.138,97.7,388.216,98.067,387.09,98.067z M385.757,90.119c-0.51,0-0.903,0.221-1.182,0.661
		c-0.279,0.441-0.418,0.952-0.418,1.535c0,0.505,0.127,1.144,0.382,1.914c0.255,0.771,0.542,1.28,0.862,1.526l0.836,0.505
		c0.069,0.039,0.229,0.136,0.479,0.292c0.214,0.117,0.385,0.175,0.517,0.175c0.392,0,0.794-0.188,1.209-0.563
		s0.621-0.771,0.621-1.185l-0.018-0.214c-0.095-1.166-0.396-2.183-0.907-3.051C387.522,90.65,386.729,90.119,385.757,90.119z"/>
	<path d="M398.271,98.669c0,0.298,0.029,0.751,0.089,1.36c0.106,1.102,0.159,1.846,0.159,2.235c0,1.283-0.162,2.138-0.487,2.565
		c-0.326,0.428-0.805,0.642-1.433,0.642c-1.278,0-2.398-0.408-3.358-1.225c-1.031-0.868-1.547-1.962-1.547-3.284
		c0-0.376,0.034-0.797,0.105-1.263c0.071-0.467,0.154-0.887,0.249-1.263c0.249,0.168,0.521,0.288,0.818,0.359
		c0.296,0.071,0.615,0.107,0.96,0.107c0.296,0,0.563-0.026,0.8-0.078c-0.024,0.091-0.392,0.765-1.104,2.021
		c-0.261,0.466-0.391,0.862-0.391,1.186c0,0.454,0.23,0.854,0.693,1.205c0.414,0.311,0.841,0.466,1.278,0.466
		c0.604,0,1.043-0.279,1.315-0.835c0.201-0.415,0.303-0.991,0.303-1.729c0-0.078-0.013-0.696-0.036-1.856
		c-0.022-1.159-0.034-1.992-0.034-2.497c-0.083,0.259-0.272,0.447-0.569,0.563c-0.201,0.078-0.456,0.117-0.764,0.117
		c-1.067,0-1.892-0.373-2.473-1.118c-0.58-0.745-0.871-1.707-0.871-2.886c0-1.023,0.189-1.846,0.569-2.468
		c0.45-0.726,1.12-1.088,2.009-1.088c0.699,0,1.222,0.065,1.564,0.194c0.344,0.13,0.729,0.428,1.154,0.894l0.035-0.661l2.205,0.486
		c-0.475,2.164-0.753,3.466-0.836,3.906C398.408,96.215,398.271,97.53,398.271,98.669z M396.85,91.926
		c-0.283-0.168-0.433-0.252-0.443-0.252c-0.284-0.129-0.559-0.194-0.817-0.194c-0.32,0-0.658,0.143-1.014,0.428
		c-0.355,0.285-0.551,0.596-0.587,0.933l-0.019,0.466c0,0.855,0.061,1.438,0.179,1.749c0.2,0.518,0.628,0.777,1.279,0.777
		c0.179,0,0.361-0.029,0.551-0.087c0.189-0.059,0.345-0.139,0.463-0.243L396.85,91.926z"/>
	<path d="M400.547,93.967c0-1.502,0.285-2.614,0.854-3.333c0.568-0.719,1.517-1.079,2.845-1.079c1.019,0,1.807,0.479,2.364,1.438
		c0.462,0.803,0.692,1.794,0.692,2.973h-4.373c0.012,0.519,0.023,1.037,0.035,1.555c0.061,1.309,0.402,1.963,1.031,1.963
		c0.344,0,0.66-0.104,0.951-0.311c0.29-0.207,0.436-0.486,0.436-0.835c0-0.22-0.029-0.473-0.089-0.758l2.133-0.058
		c-0.296,1.088-0.657,1.84-1.084,2.254c-0.498,0.492-1.245,0.738-2.239,0.738c-1.092,0-1.969-0.466-2.632-1.399
		C400.855,96.26,400.547,95.21,400.547,93.967z M402.022,92.723l2.685-0.078v-0.253c0-0.557-0.113-0.978-0.338-1.263
		c-0.227-0.285-0.587-0.428-1.084-0.428c-0.463,0-0.791,0.149-0.987,0.447c-0.195,0.298-0.293,0.713-0.293,1.244L402.022,92.723z"/>
	<path d="M408.688,88.798h1.439l-0.07-2.371h1.813l-0.143,2.371h2.488v2.215l-2.631-0.136l0.16,6.005
		c0.022,0.493,0.054,0.978,0.089,1.458c0.059,0.415,0.153,0.622,0.284,0.622c0.249,0,0.45-0.453,0.604-1.36
		c0.118-1.01,0.189-1.606,0.214-1.788l2.099,0.719c-0.332,1.399-0.789,2.436-1.369,3.109c-0.486,0.557-1.043,0.836-1.671,0.836
		c-0.486,0-0.901-0.11-1.245-0.331c-0.414-0.259-0.622-0.641-0.622-1.146v-8.24l-1.528,0.059L408.688,88.798z"/>
	<path d="M415.87,93.967c0-1.502,0.285-2.614,0.854-3.333c0.569-0.719,1.518-1.079,2.846-1.079c1.019,0,1.807,0.479,2.363,1.438
		c0.462,0.803,0.693,1.794,0.693,2.973h-4.373c0.011,0.519,0.023,1.037,0.035,1.555c0.06,1.309,0.402,1.963,1.031,1.963
		c0.344,0,0.66-0.104,0.95-0.311s0.437-0.486,0.437-0.835c0-0.22-0.03-0.473-0.089-0.758l2.133-0.058
		c-0.296,1.088-0.657,1.84-1.084,2.254c-0.498,0.492-1.245,0.738-2.24,0.738c-1.091,0-1.968-0.466-2.631-1.399
		C416.179,96.26,415.87,95.21,415.87,93.967z M417.346,92.723l2.686-0.078v-0.253c0-0.557-0.113-0.978-0.338-1.263
		c-0.227-0.285-0.587-0.428-1.084-0.428c-0.464,0-0.791,0.149-0.987,0.447c-0.195,0.298-0.293,0.713-0.293,1.244L417.346,92.723z"/>
	<path d="M428.706,101.896l0.105-5.674h-2.418l0.071,5.927l-2.702,0.117c0-1.399,0.023-2.798,0.071-4.197
		c0.047-1.399,0.101-2.886,0.16-4.46c0.059-1.574,0.089-2.892,0.089-3.955l2.026,0.117l-0.462,3.128l3.466,0.117l-0.035-3.614
		l3.164-0.02c-0.118,1.037-0.213,2.199-0.284,3.488s-0.115,2.455-0.134,3.498s-0.026,2.381-0.026,4.013v1.574L428.706,101.896z"/>
	<path d="M433.522,94.608c0-0.583-0.061-1.8-0.179-3.653c-0.06-0.933-0.089-1.665-0.089-2.196h1.777l0.054,0.875l-0.035-0.175
		c0-0.22,0.112-0.392,0.337-0.515c0.227-0.123,0.575-0.185,1.05-0.185c1.091,0,1.783,0.421,2.079,1.263
		c0.154,0.428,0.231,1.367,0.231,2.818l-1.547,0.214c-0.083-0.972-0.143-1.561-0.178-1.769c-0.166-0.984-0.386-1.477-0.657-1.477
		c-0.38,0-0.652,0.162-0.818,0.486c-0.118,0.221-0.198,1.001-0.239,2.342c-0.042,1.341-0.063,2.497-0.063,3.469
		c0,0.777,0.025,1.623,0.08,2.536c0.053,0.913,0.169,2.173,0.347,3.779l-2.418,0.097c0-0.777,0.06-2.422,0.178-4.936
		C433.493,96.325,433.522,95.334,433.522,94.608z"/>
</g>
</svg>
