<?xml version="1.0" encoding="utf-8"?>
<!-- Generator: Adobe Illustrator 15.1.0, SVG Export Plug-In . SVG Version: 6.00 Build 0)  -->
<!DOCTYPE svg PUBLIC "-//W3C//DTD SVG 1.1//EN" "http://www.w3.org/Graphics/SVG/1.1/DTD/svg11.dtd">
<svg version="1.1" id="Layer_1" xmlns="http://www.w3.org/2000/svg" xmlns:xlink="http://www.w3.org/1999/xlink" x="0px" y="0px"
	 width="310.667px" height="299px" viewBox="0 0 310.667 299" enable-background="new 0 0 310.667 299" xml:space="preserve">
<g>
	<path fill="#A83F41" d="M159.349,183.215c-15.926,0-30.126-5.561-42.281-16.576C73.88,127.508,71.106,32.035,71.008,27.99
		l-0.16-6.654h93.295v12.996H84.341c1.429,22.037,8.526,92.86,41.464,122.688c10.889,9.861,23.28,14.129,37.855,13.037l0.966,12.961
		C162.848,183.148,161.087,183.215,159.349,183.215z"/>
</g>
<g>
	<path fill="#A83F41" d="M168.938,212.92c-1.738,0-3.497-0.066-5.277-0.199l0.966-12.959c14.59,1.094,26.97-3.178,37.854-13.037
		c32.938-29.83,40.036-100.652,41.467-122.689h-79.805V51.04h93.294l-0.16,6.654c-0.096,4.045-2.871,99.519-46.058,138.65
		C199.064,207.355,184.861,212.918,168.938,212.92z"/>
</g>
<g>
	<text transform="matrix(1 0 0 1 79.2949 266.998)" fill="#921B1D" font-family="'Comfortaa'" font-size="47.243">COFFEE</text>
</g>
<rect x="46.932" y="42.743" transform="matrix(0.6367 -0.7711 0.7711 0.6367 -9.6097 77.466)" fill="#AA4042" width="60.95" height="12.377"/>
<rect x="47.588" y="62.312" transform="matrix(0.6367 -0.7711 0.7711 0.6367 -15.2425 104.6487)" fill="#AA4042" width="111.706" height="12.377"/>
<polygon fill="#AA4042" points="158.668,51.04 79.815,146.318 89.359,154.201 164.302,64.036 164.302,51.04 "/>
<polygon fill="#AA4042" points="164.143,109.934 112.515,172.777 122.059,180.656 164.143,129.371 "/>
</svg>
