<?xml version="1.0" encoding="utf-8"?>
<!-- Generator: Adobe Illustrator 15.1.0, SVG Export Plug-In . SVG Version: 6.00 Build 0)  -->
<!DOCTYPE svg PUBLIC "-//W3C//DTD SVG 1.1//EN" "http://www.w3.org/Graphics/SVG/1.1/DTD/svg11.dtd">
<svg version="1.1" id="Layer_1" xmlns="http://www.w3.org/2000/svg" xmlns:xlink="http://www.w3.org/1999/xlink" x="0px" y="0px"
	 width="74px" height="73.5px" viewBox="0 0 74 73.5" enable-background="new 0 0 74 73.5" xml:space="preserve">
<g>
	<rect x="12.45" y="35.885" fill="#FFFFFF" width="16.445" height="2"/>
	<rect x="12.45" y="40.805" fill="#FFFFFF" width="16.445" height="2"/>
	<rect x="12.45" y="45.724" fill="#FFFFFF" width="16.445" height="2"/>
	<path fill="#FFFFFF" d="M44.08,60.93c-2.354-1.705-4.279-3.954-5.598-6.569h-0.75v-0.016H9.928c-2.206,0-4-1.794-4-4v-34
		c0-2.206,1.794-4,4-4h53.333c2.206,0,4,1.794,4,4v15.833h2V16.345c0-3.309-2.691-6-6-6H9.928c-3.309,0-6,2.691-6,6v34
		c0,3.309,2.691,6,6,6H29.11v7h-8.248v2h31.465v-2H44.08V60.93z"/>
	<path fill="#FFFFFF" d="M71.042,46.171c0-8.979-7.306-16.285-16.286-16.285S38.47,37.191,38.47,46.171
		c0,8.98,7.306,16.286,16.286,16.286c3.062,0,5.919-0.865,8.368-2.341l5.302,5.303l1.414-1.414l-5.04-5.04
		C68.593,55.98,71.042,51.36,71.042,46.171z M54.756,60.457c-7.877,0-14.286-6.409-14.286-14.286s6.409-14.285,14.286-14.285
		c7.877,0,14.286,6.408,14.286,14.285S62.633,60.457,54.756,60.457z"/>
	<path fill="#FFFFFF" d="M18.187,28.482v-8.544H15.49v8.251c0,0.866-0.341,1.299-1.023,1.299c-0.237,0-0.626-0.178-1.166-0.533
		v2.705c0.576,0.326,1.16,0.489,1.753,0.489c0.943,0,1.701-0.337,2.274-1.01S18.187,29.58,18.187,28.482z"/>
	<path fill="#FFFFFF" d="M23.804,32.114c1.388,0,2.458-0.55,3.208-1.651c0.75-1.101,1.125-2.647,1.125-4.641
		c0-1.994-0.381-3.527-1.144-4.602c-0.763-1.074-1.865-1.611-3.306-1.611c-1.353,0-2.408,0.535-3.164,1.606
		c-0.757,1.071-1.135,2.565-1.135,4.481c0,2.076,0.376,3.665,1.13,4.766C21.273,31.564,22.368,32.114,23.804,32.114z M23.706,22.307
		c1.032,0,1.549,1.16,1.549,3.479c0,1.437-0.135,2.399-0.405,2.893c-0.27,0.492-0.657,0.739-1.161,0.739
		c-0.469,0-0.827-0.247-1.073-0.739c-0.246-0.493-0.369-1.475-0.369-2.946C22.247,23.448,22.733,22.307,23.706,22.307z"/>
	<path fill="#FFFFFF" d="M36.648,23.268c0-0.967-0.351-1.764-1.05-2.391c-0.7-0.625-1.849-0.938-3.444-0.938h-2.741V31.82h3.524
		c1.175,0,2.121-0.314,2.839-0.943s1.077-1.457,1.077-2.483c0-1.281-0.579-2.15-1.736-2.607
		C36.137,25.151,36.648,24.312,36.648,23.268z M32.108,22.217c0.629,0.012,1.087,0.113,1.375,0.303
		c0.288,0.189,0.432,0.525,0.432,1.006c0,0.807-0.603,1.225-1.807,1.255V22.217z M33.644,29.19
		c-0.341,0.198-0.853,0.304-1.536,0.315v-2.572h0.223c1.216,0,1.825,0.425,1.825,1.273C34.156,28.664,33.985,28.992,33.644,29.19z"
		/>
	<path fill="#FFFFFF" d="M40.128,29.578c-0.582,0-1.3-0.25-2.154-0.748v2.768c0.741,0.355,1.489,0.534,2.243,0.534
		c1.104,0,2.014-0.337,2.732-1.011c0.718-0.673,1.077-1.523,1.077-2.549c0-0.879-0.274-1.651-0.823-2.318
		c-0.549-0.668-1.09-1.186-1.624-1.554c-0.896-0.623-1.344-1.184-1.344-1.683c0-0.284,0.097-0.508,0.29-0.672
		c0.192-0.162,0.455-0.244,0.788-0.244c0.499,0,1.148,0.219,1.949,0.658v-2.661c-0.748-0.326-1.501-0.489-2.261-0.489
		c-1.027,0-1.863,0.323-2.51,0.971c-0.647,0.646-0.97,1.482-0.97,2.51c0,0.753,0.209,1.438,0.627,2.051
		c0.418,0.614,1.093,1.277,2.025,1.989c0.385,0.297,0.657,0.549,0.814,0.757c0.157,0.207,0.236,0.43,0.236,0.668
		c0,0.308-0.098,0.556-0.294,0.742C40.733,29.484,40.466,29.578,40.128,29.578z"/>
</g>
</svg>
